<?xml version="1.0" encoding="UTF-8"?>
<svg id="Layer_1" data-name="Layer 1" xmlns="http://www.w3.org/2000/svg" viewBox="0 0 600 500">
  <defs>
    <style>
      .cls-1 {
        fill: #fff;
      }

      .cls-2 {
        fill: #010101;
      }
    </style>
  </defs>
  <path class="cls-1" d="M300.08,289.12c.09-.05,.19-.1,.28-.15-.09,.05-.19,.1-.28,.15Z"/>
  <path class="cls-1" d="M252.64,314.11c-.13,.16-.28,.31-.43,.45,.15-.15,.3-.3,.43-.45Z"/>
  <path class="cls-1" d="M253.09,313.47c-.1,.16-.22,.32-.34,.48,.12-.16,.23-.31,.34-.48Z"/>
  <path class="cls-1" d="M301.86,288.27s0,0,0,0c0,0,0,0,0,0Z"/>
  <path class="cls-1" d="M252.07,314.71c-.13,.12-.28,.22-.42,.33,.14-.11,.29-.21,.42-.33Z"/>
  <path class="cls-1" d="M246.22,15.23c.24-.04,.48-.1,.72-.14-.24,.04-.48,.1-.72,.14Z"/>
  <path class="cls-1" d="M295.35,292.8c.32-.35,.66-.69,1.01-1.01-.35,.32-.68,.66-1.01,1.01Z"/>
  <path class="cls-1" d="M350.07,274.26c-.73-1.26-1.65-2.4-2.72-3.39-2.99-2.79-6.79-3.02-9.72-.82,2.93-2.15,6.71-1.91,9.66,.86,1.07,.99,1.99,2.13,2.72,3.39,2.91,5.08,4.15,10.61,4.61,16.37,.03,.11,.06,.22,.09,.33-.44-5.89-1.67-11.55-4.64-16.74Z"/>
  <path class="cls-1" d="M243.15,316.16c.49-.64-.24-1.2-.52-1.77-.86-1.77-1.21-3.52-1.23-5.26,.01,1.74,.36,3.5,1.22,5.27,.28,.56,.92,1.19,.53,1.75Z"/>
  <path class="cls-1" d="M241.94,316.41c.36,.1,.71,.15,1-.04-.27,.17-.63,.13-1,.04Z"/>
  <path class="cls-1" d="M228.46,306.36c-.93-6.24,2.61-13.02,7.93-16.59-5.33,3.57-8.88,10.36-7.95,16.61,.33,2.97,2.19,5.55,4.9,6.8,0,0,0-.02,0-.03-2.7-1.26-4.54-3.83-4.88-6.79Z"/>
  <path class="cls-1" d="M296.8,291.4c.26-.23,.53-.46,.81-.67-.28,.21-.54,.44-.81,.67Z"/>
  <path class="cls-1" d="M457.72,316.84c-.2,.23-.33,.37-.43,.53-.77,1.16-1.58,2.28-2.41,3.35,.85-1.09,1.67-2.22,2.44-3.39,.09-.14,.22-.28,.4-.49Z"/>
  <path class="cls-1" d="M401.05,123.6c5.37-4.05,10.25-8.61,14.32-14.04-4.07,5.41-8.95,9.98-14.32,14.04Z"/>
  <path class="cls-1" d="M351.27,146.94c1.04-.45,1.67-1.34,1.27-2.44-.11-.28-.26-.46-.44-.57,.17,.11,.32,.29,.42,.57,.42,1.12-.22,1.99-1.27,2.44-1.84,.89-3.86,1.35-5.9,1.34,0,0,0,0,.01,0,2.04,0,4.06-.46,5.9-1.34Z"/>
  <path class="cls-1" d="M313.42,206.44c8.4-12.52,15.77-25.58,20.08-40.16,.27-.9,.7-1.75,1.27-2.5,3.33-4.38,6.18-9.11,8.5-14.1,.25-.86,1.06-1.43,1.95-1.4-.89-.04-1.71,.53-1.96,1.4-2.33,5.01-5.2,9.75-8.55,14.14-.57,.75-1,1.6-1.27,2.51-4.31,14.58-11.67,27.63-20.08,40.16-4.46,6.65-8.95,13.28-13.97,19.95,.91-.17,1.64-.53,2.28-.96-.63,.42-1.34,.75-2.22,.92,5.03-6.66,9.5-13.3,13.97-19.95Z"/>
  <path class="cls-1" d="M396.39,126.92c-.22,.15-.44,.3-.66,.44,.22-.15,.44-.29,.66-.44Z"/>
  <path class="cls-1" d="M329.65,289.54c.79-8.01,1.58-16.02,2.37-24.02,1.23-12.44,1.93-24.89,.19-37.38-.39-2.88-1.34-5.67-2.8-8.19-1.97-3.36-4.78-4.82-8.73-4.39-6.28,.68-11.2,4.13-16.15,7.61-.01,.01-.03,.02-.04,.03,4.95-3.48,9.86-6.91,16.14-7.59,3.95-.42,6.76,1.03,8.73,4.39,1.46,2.52,2.41,5.3,2.8,8.19,1.74,12.46,1.04,24.91-.19,37.38-.8,8.01-1.59,16.02-2.37,24.02-.05,.58-.09,1.2,.47,1.59,1.34,.91,2.68,1.79,4.48,2.99,0-.03-.02-.07-.02-.1-1.75-1.17-3.08-2.04-4.4-2.94-.58-.39-.52-1.01-.47-1.59Z"/>
  <path class="cls-1" d="M414.33,82.68c5.18,4.07,8.21,9.14,6.69,16.07-.33,1.35-.78,2.67-1.35,3.94,.57-1.27,1.03-2.58,1.37-3.94,1.52-6.93-1.51-12-6.69-16.07-8.94-7.02-19.15-11.37-30.13-13.99-.83-.19-1.7-.53-2.67-.51,.96-.01,1.83,.32,2.66,.51,10.98,2.62,21.2,6.97,30.13,13.99Z"/>
  <path class="cls-1" d="M378.94,151.51c-3.81,9.12-8.46,17.83-12.54,26.81-1.78,4.02-3.37,8.12-4.78,12.27,1.41-4.15,2.99-8.24,4.78-12.25,4.08-8.98,8.73-17.7,12.54-26.81,2.31-5.55,5.15-10.95,6.33-16.88,1.17-5.85,1.77-11.67,1.85-17.45-.09,5.77-.68,11.57-1.85,17.42-1.19,5.93-4.02,11.33-6.33,16.88Z"/>
  <path class="cls-1" d="M253.45,312.79s-.01,.03-.02,.04c0-.01,.01-.03,.02-.04Z"/>
  <path class="cls-1" d="M335.66,139.25c-.39-.47-.69-1.48-1.36-1.37,.66-.09,.96,.9,1.35,1.37,2.91,3.5,6.24,5.65,10.3,5.62-4.06,.02-7.38-2.13-10.29-5.62Z"/>
  <path class="cls-1" d="M384.55,28.75c-.38-2.54-.97-5.07-1.81-7.58-.63-1.85-1.41-3.5-2.32-4.95,.91,1.46,1.69,3.12,2.32,4.99,.84,2.5,1.43,5.01,1.81,7.54Z"/>
  <path class="cls-1" d="M366.1,473.12c.23-.22,.46-.44,.69-.63-.23,.19-.46,.41-.69,.63Z"/>
  <path class="cls-1" d="M261.85,13.25c-1.79,.15-3.58,.31-5.37,.51-3.02,.33-6.03,.75-9.01,1.25,2.99-.51,6-.93,9.04-1.25,1.78-.2,3.56-.36,5.34-.51Z"/>
  <path class="cls-1" d="M166.33,191.68c-12.77-12.02-21.01-26.66-23.27-44.2-3.44-26.73,1.74-51.76,16.04-74.67,9.39-15.05,21.98-26.91,36.93-36.33,7.56-4.76,15.1-9.52,23.31-13.16,2.6-1.16,5.23-2.18,7.89-3.12-2.67,.94-5.31,1.96-7.92,3.12-8.18,3.65-15.74,8.41-23.31,13.17-14.95,9.42-27.55,21.28-36.93,36.33-14.31,22.94-19.48,47.94-16.04,74.67,2.26,17.54,10.5,32.18,23.27,44.2,15.1,14.24,33.7,20.37,54.07,21.57,2.33,.14,4.65,.2,6.96,.19-2.3,.01-4.61-.05-6.93-.19-20.37-1.22-38.93-7.35-54.07-21.57Z"/>
  <path class="cls-1" d="M298.38,290.17c.18-.13,.37-.26,.56-.38-.19,.12-.37,.25-.56,.38Z"/>
  <path class="cls-1" d="M332.72,465.25c2.72-1.33,3.95-3.4,4.84-5.98,.21-.62,.48-1.21,.72-1.81,3.81-9.24,7.19-18.69,10.58-28.04,.52-1.42,.54-2.39-.65-3.3,1.13,.9,1.1,1.86,.59,3.25-3.39,9.4-6.77,18.82-10.57,28.09-.24,.6-.52,1.19-.72,1.81-.89,2.58-2.12,4.65-4.84,5.99-3.98,1.94-6.28,5.68-8.34,9.48h-.02c-1.71,4.44-2.15,9.12-2.53,13.79-.1,1.11-.47,1.48-1.57,1.44-5.29-.04-10.58,0-15.87,0-.35,0-.65-.03-.89-.13,.25,.14,.57,.17,.95,.16h15.87c1.11,0,1.47-.36,1.57-1.44,.42-4.68,.83-9.35,2.54-13.82,2.06-3.8,4.36-7.54,8.34-9.49Z"/>
  <path class="cls-1" d="M271.85,372.32s.03,.04,.05,.05c-.02-.02-.03-.04-.05-.05Z"/>
  <path class="cls-1" d="M307.59,469.13c1.11-.85,1.04-1.32,.09-2.11-2.69-2.2-9.92-3.16-14.25-.02,4.33-3.12,11.53-2.16,14.22,.04,.96,.79,1.03,1.26-.09,2.11-6.28,4.85-8.72,11.33-7.72,19.11,.11,.89-.02,1.35-.44,1.56,.45-.2,.59-.66,.47-1.58-1-7.79,1.44-14.27,7.72-19.11Z"/>
  <path class="cls-1" d="M323.28,475.93v-.04c-.63-1.04-1.44-1.96-2.38-2.74-.84-.69-1.73-1.28-2.66-1.74,.91,.45,1.78,1.03,2.6,1.71,.96,.79,1.79,1.74,2.44,2.8Z"/>
  <path class="cls-1" d="M339.38,463.31c2.84,.35,5.27,1.1,7.12,3,.91,.93,1.35,.6,2.19-.14,3.26-2.88,6.95-4.51,11.5-3.92,1.75,.23,3.76,2.01,4.89,1.03,1.13-.98,1.25-3.43,1.83-5.22,2.55-7.86,4.87-15.77,6.02-23.98,.16-1.12,.37-1.95-1.32-1.89-5.96,.21-11.89-.85-17.4-3.13-1-.4-1.48-.4-1.86,.72-3.64,11.31-7.57,22.52-12.94,33.49l-.04,.04Z"/>
  <path class="cls-1" d="M286.82,471.01c1.07-1.82,.47-2.56-1.01-3.36-3.88-2.16-8.7-1.54-11.91,1.52,0,0-.02,.02-.03,.03,3.2-3.05,8.01-3.67,11.88-1.52,1.48,.81,2.08,1.55,1.01,3.36-3.1,5.25-5.03,10.93-4.76,17.14,.04,.89-.14,1.41-.62,1.65,.52-.23,.73-.74,.68-1.68-.27-6.22,1.66-11.89,4.76-17.14Z"/>
  <path class="cls-1" d="M340.22,420.09c.32,.31,.64,.63,.97,.93-.33-.3-.65-.61-.97-.93Z"/>
  <path class="cls-1" d="M273.08,402.72s.07,.07,.11,.09l-.03-.04s-.05-.03-.08-.05Z"/>
  <path class="cls-1" d="M339.8,419.69c-1.39-1.41-2.68-2.93-3.84-4.54-.39-.54-.79-1.05-1.2-1.51,.39,.45,.77,.93,1.15,1.46,1.18,1.64,2.48,3.17,3.89,4.59Z"/>
  <path class="cls-1" d="M283.53,388.85c.92,.93,1.86,1.82,2.83,2.68-.95-.84-1.88-1.72-2.78-2.64-4.57-4.63-8.05-10.06-11.26-15.66-.05-.26-.14-.53-.28-.73,.12,.19,.2,.45,.23,.68,3.21,5.61,6.69,11.03,11.26,15.66Z"/>
  <path class="cls-1" d="M324.25,431.03c-1.76,.45-3.57,.79-5.43,.99-.59,.07-.96,.2-1.18,.46,.22-.23,.57-.35,1.11-.43,1.88-.21,3.71-.55,5.5-1.02Z"/>
  <path class="cls-1" d="M332.79,489.98s.02,0,.03,0v-.02s-.02,0-.03,0v.02Z"/>
  <path class="cls-1" d="M333.43,424.94c1.61-.71,3.19-1.51,4.73-2.39,.13-.07,.26-.16,.4-.23-.16,.08-.32,.18-.47,.26-1.52,.87-3.07,1.66-4.66,2.36Z"/>
  <path class="cls-1" d="M244.45,313.13c-.94-2.29-1.36-4.76-1.21-7.22,.06-1.41,0-2.83-.19-4.23,0,.02-.01,.03-.02,.05,.18,1.39,.24,2.79,.18,4.19-.14,2.47,.27,4.94,1.21,7.22,1.36,3.08,4.18,3.96,6.96,2.11,0,0,0,0,0,0-2.77,1.84-5.59,.96-6.94-2.11Z"/>
  <path class="cls-1" d="M327.58,289.58s0,0,0,0c0,.01,0,.02,0,.03v-.03Z"/>
  <path class="cls-1" d="M335.92,489.93c.74,0,1.49,0,2.23,.02-.74-.02-1.49-.02-2.23-.02Z"/>
  <path class="cls-1" d="M303.65,285.14c6.03-1.6,11.89-.72,17.64,1.63,2.06,.84,4.07,1.81,6.29,2.81,0-.01,0-.02,0-.04-2.2-.99-4.2-1.95-6.25-2.79-5.77-2.35-11.62-3.23-17.69-1.61Z"/>
  <path class="cls-1" d="M317.55,312.43c.16-.86,.38-1.23,.68-1.29-.33,.03-.56,.4-.73,1.31-.48,2.52-2.01,4.53-4.22,5.3,2.24-.76,3.79-2.76,4.27-5.32Z"/>
  <path class="cls-1" d="M258.86,309.92c-1.44-1.09-2.83-2.21-3.55-4-.4-1.01-.66-2.24-2.36-2.93,0,.01,0,.02,.01,.03,1.66,.72,1.92,1.91,2.32,2.9,.72,1.8,2.09,2.93,3.55,4.01,.43,.32,.78,.5,1.02,.4-.25,.09-.59-.1-1-.41Z"/>
  <path class="cls-1" d="M358.28,488.36c-.33-2.44-.31-4.75,.06-6.93-.37,2.18-.39,4.49-.06,6.94,.02,.16,.03,.3,.04,.43,0-.14-.02-.28-.04-.45Z"/>
  <path class="cls-1" d="M350.5,468.27c3.86-4.72,12.75-3.59,15.64-1.19,.5,.43,.71,.75,.67,1.06,.04-.32-.17-.64-.67-1.08-2.88-2.44-11.77-3.53-15.64,1.19-4.88,5.97-6.89,12.94-7.84,20.42-.01,.12-.02,.23-.02,.33,0-.1,0-.2,.02-.32,.94-7.45,2.95-14.46,7.84-20.42Z"/>
  <path class="cls-1" d="M345.44,470.58c.72-1.19,.42-1.78-.52-2.49-2.29-1.74-5.82-2.03-8.87-1.14,3.05-.88,6.57-.59,8.85,1.15,.94,.72,1.21,1.31,.52,2.49-3.18,5.47-5.29,11.29-4.97,17.73,.05,1.07-.28,1.48-.96,1.6,.7-.11,1.03-.51,.98-1.61-.32-6.47,1.8-12.26,4.97-17.73Z"/>
  <path class="cls-1" d="M272.88,470.19c.28-.3,.58-.6,.88-.89-.31,.29-.6,.59-.88,.89Z"/>
  <path class="cls-1" d="M359.39,477.68c-.06,.15-.11,.31-.16,.46,.06-.15,.1-.31,.16-.46Z"/>
  <path class="cls-1" d="M358.61,480.15c-.1,.42-.19,.84-.26,1.27,.07-.43,.16-.85,.26-1.27Z"/>
  <path class="cls-1" d="M288.42,389.8c8.19,7.24,17.8,11.95,27.83,15.81,4.68,1.69,9.57,2.71,14.53,3.03,0,0,0-.01,0-.02-4.94-.32-9.82-1.34-14.48-3.02-10.06-3.9-19.65-8.63-27.83-15.81-6.73-5.94-11.5-13.3-15.29-21.23-7.52-15.55-11.08-32.72-10.37-49.97,.81-22.25,6.95-42.91,16.97-62.66,7.03-13.85,16.71-25.2,29.52-33.9,2.34-1.59,4.77-2.98,7.42-3.85-2.66,.87-5.11,2.27-7.47,3.87-12.8,8.7-22.49,20.05-29.51,33.9-10.02,19.75-16.17,40.41-16.97,62.66-.71,17.26,2.85,34.43,10.37,49.97,3.82,7.91,8.57,15.29,15.29,21.23Z"/>
  <path class="cls-1" d="M358.96,478.9c-.1,.32-.18,.64-.27,.97,.08-.32,.17-.65,.27-.97Z"/>
  <path class="cls-1" d="M354.36,489.95c.54,0,1.08,0,1.61,.01-.54-.01-1.08-.02-1.61-.01Z"/>
  <path class="cls-1" d="M381.77,322.96c.56,.62,1.14,1.22,1.74,1.8-.6-.58-1.18-1.19-1.74-1.8Z"/>
  <path class="cls-1" d="M300.65,87.75c1.03,2.09,1.53,4.4,1.44,6.73l.03-.04c.09-2.33-.41-4.64-1.44-6.73-2.03-3.74-6.47-4.14-8.83-.65,0,.01-.01,.02-.02,.03,2.34-3.47,6.79-3.07,8.82,.67Z"/>
  <path class="cls-1" d="M387.97,298.13c-.19,.7-.41,1.39-.66,2.06,.25-.68,.47-1.37,.66-2.06,1.44-4.9-.06-7.76-4.95-9.04,4.88,1.29,6.38,4.14,4.95,9.04Z"/>
  <path class="cls-1" d="M373.34,311.39c1.3,2.13,2.68,4.2,4.15,6.23l.03-.04c.62-.95,1.23-1.91,1.83-2.86-.61,.97-1.23,1.95-1.86,2.91-1.46-2.03-2.85-4.1-4.15-6.23Z"/>
  <path class="cls-1" d="M291.3,87.95c.09-.15,.19-.31,.29-.46-.1,.15-.2,.31-.29,.46Z"/>
  <path class="cls-1" d="M201.16,169.04c1.08-.66,1.91-1.52,2.45-2.47-.54,.95-1.37,1.8-2.45,2.47Z"/>
  <path class="cls-1" d="M357.09,250.06c.33-.13,.81-.13,1.5,0,4.93,.88,9.87,1.65,14.5,3.68,1.27,.53,2.49,1.17,3.65,1.91,5.03,3.34,6.27,7.99,3.59,13.41-1.42,2.87-3.32,5.47-5.62,7.7-3.7,3.83-7.68,7.37-11.91,10.6,0,0,0,.01,0,.02,4.24-3.24,8.23-6.79,11.94-10.62,2.3-2.23,4.2-4.83,5.62-7.7,2.65-5.42,1.4-10.06-3.59-13.41-1.16-.74-2.38-1.38-3.65-1.91-4.63-2.02-9.57-2.8-14.5-3.68-.71-.13-1.2-.12-1.53,.02Z"/>
  <path class="cls-1" d="M410.11,390.49c-1.5,.62-2.32,.54-3.31-.95-3.56-5.19-8.59-9.2-14.44-11.5-1.82-.89-3.87-1.19-5.87-.87,0,.01,0,.02,0,.03,1.99-.31,4.03,0,5.84,.87,5.86,2.3,10.89,6.31,14.44,11.5,.99,1.49,1.81,1.57,3.31,.95,6.08-2.6,11.88-5.79,17.33-9.54,2.51-1.68,4.86-3.45,7.06-5.3-2.19,1.84-4.53,3.6-7.03,5.27-5.45,3.75-11.25,6.95-17.33,9.55Z"/>
  <path class="cls-1" d="M196.15,158.45c.14-.08,.29-.16,.44-.23-.15,.07-.3,.14-.44,.23Z"/>
  <path class="cls-1" d="M379.82,320.3c-.04,.26,.1,.55,.42,.93,.27,.33,.58,.64,.86,.96-.29-.33-.57-.66-.85-1-.31-.35-.46-.63-.43-.89Z"/>
  <path class="cls-1" d="M199.28,162.27c-.14-.05-.27-.09-.4-.12,.13,.03,.26,.07,.4,.12Z"/>
  <path class="cls-1" d="M290.81,88.82c.07-.14,.16-.28,.23-.42-.08,.14-.16,.28-.23,.42Z"/>
  <path class="cls-1" d="M308.55,78.64c-.23-1.29-.79-2.5-1.61-3.52-2.56-3.53-6.62-5.66-10.98-5.75v.04c-3.47,.04-6.17,.45-8.67,1.78-.46,.25-.89,.58-1.04,1.03,.17-.42,.57-.74,1.01-.97,2.49-1.32,5.2-1.73,8.67-1.78v-.04c4.36,.09,8.42,2.22,10.98,5.75,.82,1.02,1.38,2.23,1.61,3.52,.09,.33,.07,.66-.03,.97,.12-.32,.15-.68,.06-1.03Z"/>
  <path class="cls-1" d="M424.2,337.31c4.68-1.3,9.18-3.19,13.39-5.62,.41-.23,.71-.45,.76-.72-.09,.24-.37,.44-.74,.65-4.21,2.43-8.7,4.32-13.39,5.62-.91,.24-1.44,.2-1.14-1.39h-.01v.06c-.32,1.59,.24,1.63,1.14,1.39Z"/>
  <path class="cls-1" d="M396.45,333.83c-.65,1.2-1.32,.43-1.93,0-3.38-2.16-6.26-4.92-9.3-7.48-.31-.27-.62-.56-.92-.84,.31,.29,.6,.6,.92,.88,3.04,2.57,5.92,5.34,9.3,7.48,.62,.4,1.29,1.16,1.93,0,1.69-3.13,3.59-6.21,3.95-9.81,.07-.67,.1-1.32,.1-1.94,0,.61-.03,1.25-.1,1.91-.37,3.59-2.26,6.68-3.95,9.81Z"/>
  <path class="cls-1" d="M379.81,489.98c-5.52,0-11.05-.06-16.53,0-1.48,0-2.01-.37-2.07-1.91-.14-4.59,.43-8.97,3.13-12.87,.51-.73,1.05-1.38,1.61-1.95-.58,.58-1.12,1.23-1.64,1.98-2.7,3.9-3.28,8.27-3.13,12.87,.06,1.54,.6,1.93,2.07,1.91,5.52-.07,11.04-.04,16.53,0,1.64,0,2.67,.01,3.39-.19-.72,.19-1.75,.18-3.36,.16Z"/>
  <path class="cls-1" d="M290.39,89.69s0,0,0,0c0,0,0,0,0,0Z"/>
  <path class="cls-1" d="M299.15,104.43c-.13,.15-.26,.3-.4,.44,.14-.14,.27-.29,.4-.44Z"/>
  <path class="cls-1" d="M381.77,310.74c-.61,1.04-1.23,2.08-1.87,3.11,.64-1.03,1.25-2.06,1.87-3.11Z"/>
  <path class="cls-1" d="M299.62,103.84c-.1,.14-.2,.28-.3,.4,.1-.13,.2-.27,.3-.4Z"/>
  <path class="cls-1" d="M383.91,306.98c-.56,1.02-1.13,2.04-1.72,3.04,.59-1.01,1.15-2.02,1.72-3.04Z"/>
  <path class="cls-1" d="M386.47,302.19c-.68,1.33-1.37,2.64-2.08,3.95,.71-1.31,1.41-2.62,2.08-3.95Z"/>
  <path class="cls-1" d="M362.81,287.38s0,0,0-.01c-.02,.01-.03,.02-.05,.04l.05-.02Z"/>
  <path class="cls-1" d="M302.12,94.44c.09,3.53-.49,6.45-2.26,9.08,0,0,0-.01,.01-.02,1.79-2.61,2.37-5.56,2.28-9.1l-.03,.04Z"/>
  <path class="cls-1" d="M303.47,316.13c-3.15-.6-5.08-2.44-6.14-5.48-1.28-3.67-1.29-7.37-.9-11.14l-.03,.02h0c-.39,3.78-.38,7.49,.9,11.16,1.06,3.05,2.99,4.88,6.14,5.48,.72,.14,1.57,.66,2.06,.06,0-.01,.01-.02,.02-.03-.49,.59-1.35,.06-2.05-.07Z"/>
  <path class="cls-1" d="M401.55,174.23c-4.31,3.39-9.28,5.27-14.45,6.83-6.46,1.97-13.02,3.79-20.18,5.3,0,0,0,0,0,0v.06c7.19-1.52,13.7-3.34,20.2-5.31,5.17-1.56,10.16-3.44,14.45-6.83,4.87-3.88,6.88-9.09,5.8-14.46,1.06,5.34-.95,10.53-5.82,14.39Z"/>
  <path class="cls-1" d="M0,0V500H600V0H0ZM454.86,355.47c-6.05,13.18-15.99,22.82-28.22,30.29-4.96,3.03-10.06,5.8-15.66,7.5-1.47,.45-1.35,1.05-.8,2.16,3.36,6.66,4.53,14.2,3.35,21.57-1.33,9.31-4.49,18.13-7.58,26.96-3.46,9.87-8.48,19.09-12.06,28.91-2.19,5.98-4.31,12.01-6.29,18.06-.67,2.07-1.73,2.88-3.91,2.88-20.77-.06-41.54,0-62.31,0-18.45,0-36.89-.17-55.35-.25-1.47,0-2.76-.37-2.71-2.08,.22-6.84,.5-13.66,4.36-19.72,1.58-2.54,3.69-4.69,6.2-6.33,4.27-2.95,9.99-2.66,13.93,.72,1.05,.88,1.51,.91,2.56,0,4.81-4.26,10.21-5.13,16.19-2.26,3.31-9.88,6.52-19.69,8.01-29.97,.27-1.84-.75-1.64-1.87-1.63-9.66,.06-18.63-2.39-26.25-8.38-12.49-9.8-20.04-22.4-20.39-38.65-.09-5.32,.95-10.59,3.07-15.47,.48-.97,.48-2.1,0-3.07-7.11-15.27-10.32-32.07-9.35-48.88,.24-4.37,.15-4.37-4.17-6.81-.2,2.88-1.94,5.43-4.54,6.68-.54,.37-1.16,.6-1.8,.68-4.23-.35-8.68,.97-12.58-1.79-1.38-.9-2.9-1.55-4.51-1.92-3.33-.88-5.84-5.03-6.02-9.24-.37-9.15,6.14-17.8,15.1-20.19,7.38-1.97,14.21-.23,20.85,2.99,1.29,.63,1.73,.62,2.16-.95,5.97-22.01,16.39-41.69,30.49-59.63,12.8-16.28,24.18-33.53,32.72-52.51,.38-.83,1.03-1.62,.66-2.67-.85-.29-1.14,.47-1.53,.88-11.55,11.9-25.09,21.08-39.75,28.62-19.48,9.93-40.21,15.42-62.19,15.21-20.65-.19-39.78-5.61-56.15-18.69-15.68-12.53-25.48-28.72-28.98-48.59-.71-4.31-1.16-8.66-1.36-13.02v-8.52c.32-3.46,.52-6.94,.96-10.4,2.63-20.85,10.17-39.68,23.08-56.29,9.14-11.77,20.28-21.26,32.89-29.16,11.72-7.34,23.72-14,37.13-17.83,13.85-3.95,27.94-5.59,42.3-6.02,17.08-.63,34.13,2.01,50.22,7.78,5.51,2,9.65,1.96,14.63-1.02,7.25-4.48,15.37-7.35,23.83-8.41,.42-.04,.91-.09,.76-.72h5.67c0,.64,.49,.65,.88,.72,7.76,1.1,11.84,6.39,14.25,13.11,3.15,8.78,3.32,17.86,1.68,27.02-.96,5.95-2.99,11.68-6,16.9-.88,1.47-.59,1.73,1.08,2.01,13.09,2.23,25.16,7.04,35.43,15.55,7.96,6.57,9.27,15.44,4.05,24.4-5.91,10.16-14.58,17.58-24.24,23.96-2,1.32-4.08,2.49-6.3,3.83,2.93,2.67,5.79,5.29,8.42,8.17,2.92,3.33,5.59,6.86,8,10.57,6.47,9.51,2.38,19.31-4.79,24.44-5.43,3.9-11.67,5.69-17.92,7.58-4.93,1.49-10.06,2.19-14.92,3.92-.67,.24-1.34,.47-2.44,.86,2.19,1.5,4.08,2.75,5.93,4.06,5.63,3.98,11.34,7.91,15.42,13.62,4.69,6.64,4.95,11.88,.83,18.11-1.94,2.9-4.18,5.59-6.69,8.01-5.27,5.01-11.21,9.25-17.65,12.62-1.44,.78-2.94,1.55-4.77,2.51,2.98,.57,5.61,1,8.22,1.59,3.35,.68,6.56,1.91,9.5,3.64,6.39,3.93,8.18,10.11,4.93,16.87-2.36,4.9-6.17,8.57-10.19,12.06-1.53,1.32-3.11,2.6-4.65,3.9l-.29,.41h.69c4.9-.61,9.81-1.02,14.7,.12,6.79,1.58,9.24,5.75,7.19,12.45-1.8,5.75-5.21,10.66-8.46,15.64-.52,.61-.86,1.36-.98,2.16,1.69-.72,3.18-1.47,4.72-2.08,3.47-1.37,6.99-2.47,10.78-1.63,3.8,.83,5.95,3.21,6.34,7.02,.47,3.33-.15,6.72-1.77,9.66-.26,.45-.76,.94-.24,1.72,.99-.44,1.88-1.07,2.62-1.87,1.98-1.71,3.86-3.54,5.93-5.13,3.25-2.49,6.28-1.92,8.46,1.57,1.17,1.9,2.11,3.94,2.8,6.06,.29,.88,.37,1.85,1.16,2.79,.64-3.12,1.76-6.12,3.34-8.89,2.72-4.56,5.56-5.14,9.81-1.86,1.72,1.33,3.37,2.76,4.97,4.23,.72,.67,1.21,.96,2.16,.27,6.66-4.74,12.45-10.2,15.78-17.89,.64-1.47,.57-3.12,1.44-4.68,1.06,.63,1.07,1.74,1.27,2.62,3.48,16.08,1.62,31.63-5.24,46.5Z"/>
  <polygon class="cls-1" points="296.43 299.51 296.54 299.43 296.46 299.48 296.43 299.51 296.43 299.51"/>
  <path class="cls-1" d="M313.78,315.17c-2.61,1.89-5.47,1.11-6.86-1.82-1.04-2.33-1.5-4.87-1.34-7.42,.05-1.44,0-2.88-.17-4.31,0,.02-.02,.05-.03,.07,.16,1.42,.22,2.86,.16,4.29-.15,2.54,.31,5.09,1.34,7.42,1.39,2.93,4.25,3.71,6.86,1.82,1.37-.99,2.12-2.28,2.51-3.75-.4,1.45-1.14,2.73-2.48,3.7Z"/>
  <path class="cls-1" d="M338.49,298.43c-2.97-6.35-3.96-13.46-2.82-20.38,.43-2.56,1.45-5.03,3.79-6.24-2.43,1.19-3.4,3.69-3.85,6.28-1.14,6.92-.16,14.03,2.82,20.38,.29,.64,.84,1.24,.76,2.24,.02,.01,.03,.02,.05,.04,.12-1.05-.45-1.66-.75-2.32Z"/>
  <path class="cls-1" d="M417.47,106.55c-.63,.96-1.27,1.89-1.94,2.8,.67-.91,1.32-1.84,1.94-2.8Z"/>
  <path class="cls-1" d="M290.6,304.27c.19-4.36,1.91-8.3,4.61-11.32-2.46,2.72-4.13,6.2-4.58,10.13-.05,.41-.08,.82-.1,1.23-.14,3.98,2.03,7.66,5.03,8.54,0-.02,0-.04-.01-.07-3-.92-5.13-4.56-4.96-8.52Z"/>
  <path class="cls-1" d="M343.71,349.3c-3.93,2.36-7.29,5.71-10.44,9.96-.72-3.04-1.34-5.58-1.83-8.14-1.99-10.64-2.92-21.44-2.79-32.26,0-.66,.06-1.12,.21-1.42-.17,.3-.23,.77-.24,1.46-.13,10.82,.8,21.63,2.8,32.26,.47,2.57,1.14,5.1,1.82,8.14,3.16-4.24,6.4-7.54,10.44-9.96s7.99-4.44,12.85-5.03c-.06,.18-.14,.33-.22,.46,.09-.14,.18-.3,.25-.5-4.86,.59-8.91,2.67-12.85,5.03Z"/>
  <path class="cls-1" d="M398.33,422.55c-.41-.88-1.12-.47-1.66-.14-5.49,3.29-11.61,5.39-17.97,6.16-8.99,1.21-17.85,.45-26.05-3.87-13-6.84-20.93-17.79-24.38-31.82-2.8-11.49,.21-21.94,6.78-31.31-6.59,9.36-9.6,19.83-6.81,31.33,3.44,14.02,11.38,24.97,24.38,31.82,8.2,4.31,17.07,5.08,26.05,3.87,6.36-.77,12.48-2.87,17.97-6.16,.54-.34,1.25-.72,1.66,.14,.2,.43,.04,.7-.22,.92,.28-.23,.47-.51,.26-.95Z"/>
  <path class="cls-1" d="M418.67,338.38c-6.66,.98-13.17,.67-19.77-2.19-.02,.02-.04,.03-.06,.05h0c6.61,2.88,13.13,3.19,19.81,2.21,.49-.07,.67-.26,.7-.49-.06,.2-.25,.36-.7,.43Z"/>
  <path class="cls-1" d="M389.14,135.58s0,0-.01,0c-5.56,17.81-14.92,33.63-22.21,50.79h0c7.29-17.16,16.64-32.97,22.22-50.78Z"/>
  <path class="cls-1" d="M370.1,239.53c-4.34,2.94-8.91,5.54-13.66,7.76v.03c-.04-1.71-.05-3.42-.03-5.13-.02,1.73-.01,3.46,.03,5.19v-.03c4.75-2.23,9.32-4.82,13.66-7.76,6.65-4.51,12.67-9.66,17.09-16.5,.93-1.44,1.54-2.88,1.85-4.34-.31,1.43-.92,2.85-1.85,4.27-4.42,6.84-10.45,11.99-17.09,16.5Z"/>
  <path class="cls-1" d="M380.79,472c-2.16-3.16-5.15-4.97-9.02-4.68-1.65,.19-3.28-.52-4.26-1.86-.48-.57-.67-.89-.28-1.65,4.31-8.42,6.71-17.43,8.36-26.69,.29-1.63-.53-3.8,.58-4.79,0,0-.02,.01-.03,.02-1.07,.94-.29,3.16-.58,4.79-1.65,9.26-4.06,18.27-8.37,26.69-.39,.76-.2,1.09,.28,1.65,.98,1.34,2.6,2.06,4.26,1.87,3.87-.29,6.85,1.52,9.02,4.67,.54,.79,1.06,1.68,.09,2.95,0,0,0,0,0,0,1.02-1.29,.49-2.16-.06-2.98Z"/>
  <path class="cls-1" d="M400.87,123.74c-.84,.64-1.7,1.25-2.57,1.86,.87-.61,1.73-1.23,2.57-1.86Z"/>
  <path class="cls-1" d="M333.66,315.12c-7.64-1.44-14.43-4.31-17.89-12.16,0,.04,.01,.09,.01,.13,3.48,7.8,10.34,10.66,17.85,12.08,7.54,1.42,15.18,1.12,21.52-4.76,.02,.78-.17,1.38-.48,1.89,.32-.51,.53-1.12,.51-1.93-6.34,5.88-13.87,6.2-21.52,4.76Z"/>
  <path class="cls-1" d="M458.47,326.83c.26-3.48,.13-6.97-.37-10.42-.16,.18-.28,.32-.38,.43-.18,.21-.31,.35-.4,.49-.78,1.17-1.59,2.3-2.44,3.39-5.89,7.55-13.47,13.07-22.31,16.98-8.43,3.72-17.25,5.41-26.54,4.12-7.57-1.06-13.51-5.03-19.29-9.81-9.17-7.58-15.91-16.87-21.03-27.43-8.78-18.09-12-37.51-12.88-57.36-.49-10.98,1.06-21.87,2.88-32.7,1.29-8.14,3.28-16.14,5.92-23.93,1.41-4.16,2.99-8.26,4.78-12.27,4.08-8.98,8.73-17.7,12.54-26.81,2.31-5.55,5.15-10.95,6.33-16.88,1.17-5.84,1.77-11.65,1.85-17.42,.18-12.68-2.12-25.17-6.32-37.46-3.77-11.01-8.3-21.75-16.05-30.68-16.05-18.5-36.04-30.13-60.31-34.15-14.09-2.28-28.39-2.84-42.6-1.68-1.78,.15-3.56,.31-5.34,.51-3.03,.33-6.05,.75-9.04,1.25-.18,.03-.35,.05-.53,.08-.24,.04-.48,.1-.72,.14-6.45,1.16-12.79,2.78-18.98,4.96-2.66,.94-5.29,1.96-7.89,3.12-8.21,3.64-15.74,8.4-23.31,13.16-14.95,9.42-27.55,21.28-36.93,36.33-14.31,22.91-19.48,47.94-16.04,74.67,2.26,17.54,10.5,32.18,23.27,44.2,15.13,14.21,33.69,20.34,54.07,21.57,2.32,.14,4.63,.2,6.93,.19,16.11-.09,31.64-3.79,46.65-9.73,17.17-6.8,32.49-16.71,46.27-28.98,8.11-7.19,14.82-15.51,19.54-25.35,.72-1.44,.58-2.09-.84-2.88-2.36-1.35-4.15-3.52-5.03-6.1-.29-.78-.83-1.88,.06-2.4,.12-.07,.22-.1,.32-.12,.68-.1,.97,.91,1.36,1.37,2.91,3.49,6.23,5.64,10.29,5.62,1.35,0,2.78-.26,4.31-.78,.58-.2,1.33-.5,1.84-.17,.18,.11,.33,.29,.44,.57,.41,1.1-.22,1.99-1.27,2.44-1.84,.89-3.86,1.35-5.9,1.34,0,0,0,0-.01,0,0,0,0,0,0,0-.05,0-.09,0-.14,0-.89-.03-1.7,.53-1.95,1.4-2.32,4.99-5.16,9.72-8.5,14.1-.57,.75-1,1.6-1.27,2.5-4.31,14.58-11.67,27.63-20.08,40.16-4.46,6.65-8.94,13.28-13.97,19.95,.88-.17,1.59-.5,2.22-.92,1.04-.7,1.85-1.6,2.8-2.26,0,0,.01,0,.02-.01,.01-.01,.03-.02,.04-.03,4.95-3.48,9.87-6.92,16.15-7.61,3.95-.42,6.76,1.03,8.73,4.39,1.45,2.52,2.4,5.3,2.8,8.19,1.74,12.49,1.04,24.94-.19,37.38-.79,8.01-1.58,16.02-2.37,24.02-.05,.58-.1,1.2,.47,1.59,1.32,.89,2.64,1.76,4.4,2.94-1.24-4.56-1.77-9.28-1.58-14.01,.07-2.93,1.05-5.76,2.79-8.11,.57-.76,1.21-1.4,1.89-1.9,2.93-2.2,6.73-1.97,9.72,.82,1.07,.99,1.99,2.13,2.72,3.39,2.98,5.19,4.21,10.85,4.64,16.74-.03-.11-.06-.22-.09-.33,.01,.13,.03,.25,.03,.38-.58-1.93-1.04-3.9-1.62-5.83-1.06-3.48-2.16-6.98-4.52-9.83-1.94-2.36-4.05-4.9-7.59-4.1-.54,.12-1.01,.31-1.45,.53-2.34,1.21-3.36,3.68-3.79,6.24-1.14,6.92-.16,14.03,2.82,20.38,.3,.66,.88,1.27,.75,2.32-.02-.01-.03-.02-.05-.04,0,.03,0,.05,0,.08-.41-.28-.64-.42-.86-.59-8.21-6.47-16.64-12.11-27.62-13.15-3.11-.35-6.13,.11-8.85,1.21,0,0,0,0,0,0-.51,.21-1.01,.44-1.5,.69-.09,.05-.19,.1-.28,.15-.39,.21-.77,.43-1.14,.67-.19,.12-.37,.25-.56,.38-.26,.18-.53,.37-.78,.56-.28,.22-.54,.44-.81,.67-.15,.13-.29,.25-.44,.38-.35,.32-.68,.66-1.01,1.01-.05,.05-.1,.1-.14,.15-2.7,3.02-4.42,6.95-4.61,11.32-.16,3.95,1.97,7.6,4.96,8.52-.25-1.53-.57-2.99-.71-4.46-.33-3.05-.51-6.09,1.5-8.75l.05-.04-.02-.02,.1-.06-.02,.03,.07-.05-.1,.09c-.39,3.77-.38,7.47,.9,11.14,1.06,3.05,2.99,4.88,6.14,5.48,.69,.14,1.56,.67,2.05,.07,.43-.59-.31-1.29-.6-1.91-2-4.31-1.21-8.48,.47-12.63,0,0,0,.02,0,.03,0-.02,.02-.05,.03-.07,.16,1.43,.22,2.87,.17,4.31-.15,2.54,.31,5.09,1.34,7.42,1.39,2.93,4.25,3.71,6.86,1.82,1.34-.98,2.08-2.26,2.48-3.7,.23-.87,.34-1.8,.37-2.77,.07-1.91-.76-3.63-.89-5.7,.01,.03,.03,.06,.04,.09,0-.04-.01-.09-.01-.13,3.46,7.85,10.25,10.73,17.89,12.16,7.64,1.44,15.18,1.12,21.52-4.76,.02,.81-.19,1.42-.51,1.93-.31,.5-.72,.91-1.15,1.3-1.82,1.68-3.99,2.95-6.35,3.69-5.43,1.7-10.91,1.39-16.31-.05-1.12-.3-1.69-.29-1.97,.2-.15,.3-.21,.76-.21,1.42-.13,10.82,.8,21.63,2.79,32.26,.48,2.57,1.11,5.1,1.83,8.14,3.15-4.24,6.51-7.6,10.44-9.96s7.99-4.44,12.85-5.03c-.07,.2-.16,.37-.25,.5-.6,.96-1.61,.65-2.3,.94-7.1,3.09-13.25,8.02-17.81,14.28-.4,.53-.78,1.06-1.15,1.59-6.56,9.36-9.58,19.81-6.78,31.31,3.44,14.02,11.37,24.97,24.38,31.82,8.2,4.31,17.07,5.08,26.05,3.87,6.36-.77,12.48-2.87,17.97-6.16,.54-.34,1.25-.75,1.66,.14,.21,.45,.02,.73-.26,.95-.17,.15-.39,.27-.58,.4-5.09,3.45-10.48,6.23-16.58,7.43-1.61,.31-3.67,.09-4.74,1-1.11,.98-.29,3.15-.58,4.79-1.65,9.26-4.05,18.27-8.36,26.69-.39,.76-.2,1.09,.28,1.65,.98,1.34,2.61,2.05,4.26,1.86,3.87-.29,6.87,1.52,9.02,4.68,.55,.83,1.08,1.69,.06,2.98,0,0,0,0,0,0,0,.01-.01,.02-.02,.04-.34-.51-.71-.99-1.12-1.44-4.26-3.96-9.07-4.26-12.9-1.09-.23,.19-.46,.41-.69,.63-.05,.05-.1,.09-.15,.14-.57,.57-1.1,1.22-1.61,1.95-2.7,3.9-3.27,8.27-3.13,12.87,.06,1.55,.59,1.91,2.07,1.91,5.48-.06,11.01,0,16.53,0,1.61,.01,2.64,.03,3.36-.16,1.17-.33,1.53-1.24,2.36-3.73,3.71-11.3,8.5-22.18,12.85-33.23s9.17-22.14,11.5-33.97c1-5.08,1.27-10.2-.17-15.31-3.44-12.26-10.29-21.47-22.78-25.72-.27-.09-.55-.21-.47-.66,0,0,.02,0,.03,0,0,0,0-.02,0-.03,2-.32,4.05-.02,5.87,.87,5.86,2.3,10.89,6.31,14.44,11.5,.99,1.49,1.81,1.57,3.31,.95,6.08-2.6,11.88-5.8,17.33-9.55,2.5-1.67,4.84-3.43,7.03-5.27,14.77-12.43,22.67-28.75,23.99-48.85ZM201.16,169.04c.83-4.1,.27-6.04-1.88-6.76-.14-.05-.27-.09-.4-.12-1.9-.49-3.06,.49-4.73,4.19-1.1-3.19-.2-6.59,2-7.9,.14-.09,.29-.16,.44-.23,2.52-1.09,5.84,.51,7.22,3.28,.81,1.63,.7,3.48-.2,5.06-.54,.95-1.37,1.81-2.45,2.47Zm98.71-65.54s0,.01-.01,.02c0,0,0,.02-.02,.03-.07,.1-.15,.2-.22,.29-.1,.14-.2,.28-.3,.4-.05,.07-.11,.12-.17,.19-.13,.15-.26,.3-.4,.44-1.2,1.19-2.67,1.84-4.57,1.55-2.31-.31-4.18-2.03-4.68-4.31-1.03-4.3-.86-8.52,.89-12.41,0,0,0,0,0,0,.13-.29,.27-.58,.42-.87,.07-.14,.16-.28,.23-.42,.08-.15,.16-.3,.25-.45,.09-.15,.19-.31,.29-.46,.08-.13,.16-.26,.24-.39,0,0,0,0,0-.01,0-.01,.01-.02,.02-.03,2.36-3.49,6.79-3.08,8.83,.65,1.03,2.09,1.53,4.4,1.44,6.73l.03-.04c.09,3.54-.49,6.49-2.28,9.1Zm8.05-23.03c-.72,.42-1.15-.32-1.62-.72-.15-.15-.29-.33-.4-.51-4.15-5.99-9.77-7.57-16.6-5.56-.35,.11-.72,.14-1.06,.24-.86,.25-1.62,.15-1.98-.77-.14-.36-.13-.68-.01-.95,.15-.45,.58-.78,1.04-1.03,2.49-1.32,5.2-1.73,8.67-1.78v-.04c4.36,.09,8.42,2.22,10.98,5.75,.82,1.02,1.38,2.23,1.61,3.52,.09,.35,.06,.71-.06,1.03-.1,.31-.3,.59-.56,.8Z"/>
  <polygon class="cls-1" points="296.41 299.54 296.43 299.51 296.43 299.51 296.41 299.54"/>
  <polygon class="cls-1" points="296.41 299.54 296.4 299.54 296.41 299.54 296.41 299.54"/>
  <path class="cls-1" d="M279.77,255.91c-10.01,19.75-16.16,40.41-16.97,62.66-.71,17.26,2.85,34.43,10.37,49.97,3.79,7.94,8.56,15.29,15.29,21.23,8.19,7.19,17.77,11.92,27.83,15.81,4.66,1.69,9.53,2.7,14.48,3.02,.07-.64-.13-1.29-.55-1.78-1.78-3.17-3.19-6.53-4.2-10.01-3.35-11.83-1.55-23,4.63-33.48,.85-1.26,1.07-2.83,.6-4.28-.77-2.57-1.3-5.2-1.85-7.83-2.3-10.98-3-22.12-2.92-33.31,0-1.47-.28-2.37-1.8-2.94-1.9-.74-3.66-1.8-5.21-3.13-.53-.45-.95-.75-1.27-.72-.3,.06-.52,.43-.68,1.29-.48,2.56-2.04,4.56-4.27,5.32-.32,.11-.65,.2-.99,.25-3.69,.62-7.56,.87-11.22-.53-1.32-.59-2.61-1.26-3.85-2.01-.3-.2-.61-.36-.94-.49-5.03-1.44-7.58-4.55-7.81-9.52-.43-8.72,5.64-17.3,13.95-19.95,.41-.13,.83-.25,1.24-.36,6.07-1.61,11.92-.74,17.69,1.61,2.05,.83,4.05,1.8,6.25,2.79,.67-6.91,1.16-13.53,1.98-20.13,1.6-12.02,2.12-24.16,1.55-36.27-.25-4.5-1.05-8.94-3.59-12.84-1.2-2.06-3.47-3.25-5.84-3.06-1.75,.07-3.39,.4-4.97,.91-2.65,.87-5.08,2.27-7.42,3.85-12.8,8.7-22.49,20.05-29.52,33.9Z"/>
  <path class="cls-1" d="M317.07,437.93c-1.44,8.66-4.03,17.1-7.71,25.07-.76,1.44-.21,3.22,1.23,3.98,.51,.27,1.08,.38,1.65,.33,5.62-.29,9.46,2.11,11.5,7.4h0s.59,0,.59,0c0,0,0,.02-.01,.03h.02c2.06-3.8,4.36-7.54,8.34-9.48,2.72-1.34,3.95-3.41,4.84-5.99,.2-.62,.47-1.21,.72-1.81,3.8-9.27,7.19-18.69,10.57-28.09,.51-1.4,.53-2.35-.59-3.25-.17-.13-.36-.26-.58-.38-2.32-1.34-4.48-2.93-6.45-4.73-.33-.3-.65-.62-.97-.93-.14-.13-.28-.26-.42-.4-1.41-1.42-2.72-2.96-3.89-4.59-.38-.52-.76-1.01-1.15-1.46-1.76-1.97-3.76-3.09-6.77-2.5-.51,.03-1.02-.02-1.51-.14-6.1-.78-11.75-2.97-17.32-5.51-8.19-3.74-16.05-7.97-22.79-13.95-.97-.86-1.91-1.75-2.83-2.68-4.57-4.64-8.05-10.06-11.26-15.66l-1.18-.05s0,.03-.01,.05c-2.72,7.62-2.79,15.94-.2,23.61l.24,.5,1.88,5.14s0,0,0,.01l.29,.36c-.05,0-.1-.01-.14-.03l.03,.04s.06,.03,.1,.04c.02,0,.04,0,.06,0l.4,.54c1.88,4.12,4.42,7.91,7.53,11.21l.36,.4v.05s.4,.39,.4,.39c.71,1.05,1.62,1.95,2.67,2.66l.37,.36c7.33,7.03,16.25,10.06,26.22,10.57,7.62,.38,15.21-1.03,22.15-4.08,1.59-.7,3.15-1.49,4.66-2.36,.15-.08,.3-.18,.47-.26,.45-.25,.94-.42,1.3,.2,.47,.81-.32,1.14-.84,1.51-4.59,3.18-9.47,5.63-14.77,7-1.78,.46-3.62,.81-5.5,1.02-.54,.08-.89,.21-1.11,.43-.21,.25-.28,.61-.26,1.14,.04,1.44-.06,2.89-.31,4.31Z"/>
  <path class="cls-1" d="M390,130.62s0,0-.01,0h.01s0,0,0,0Z"/>
  <path class="cls-1" d="M390,130.62c.25-.02,.5-.06,.74-.13,1.18-.72,2.37-1.44,3.52-2.16,.49-.32,.99-.65,1.48-.97,.22-.15,.44-.29,.66-.44,.64-.43,1.28-.87,1.91-1.32,.87-.61,1.73-1.23,2.57-1.86,.06-.04,.12-.09,.18-.13,5.37-4.06,10.25-8.63,14.32-14.04,.05-.07,.11-.14,.16-.21,.67-.91,1.32-1.85,1.94-2.8,.11-.17,.22-.33,.33-.5,.72-1.07,1.35-2.19,1.88-3.36,.57-1.27,1.02-2.58,1.35-3.94,1.52-6.93-1.51-12-6.69-16.07-8.94-7.02-19.15-11.37-30.13-13.99-.83-.19-1.7-.52-2.66-.51-.32,0-.65,.05-.99,.15,8.4,20.03,12.22,40.62,9.45,62.29Z"/>
  <path class="cls-1" d="M378.61,63.99c.85-1.06,1.48-2.29,1.85-3.59,1.71-4.78,2.99-9.7,3.82-14.71,.89-5.69,1.1-11.35,.27-16.93-.38-2.53-.98-5.04-1.81-7.54-.63-1.87-1.41-3.53-2.32-4.99-3.16-5.04-7.94-7.61-14.05-7.29-11.61,.62-21.67,5.84-31.95,11.26,19.41,10.06,34.18,24.44,44.18,43.79Z"/>
  <path class="cls-1" d="M387.91,211.37c-1.7-3.28-4.01-6.21-6.81-8.63-4.31-3.82-9.08-6.97-13.72-10.32-2.24-1.61-2.19-1.62-2.97,.91-3.3,10.89-5.61,22.06-6.91,33.36-.66,5.14-1.02,10.31-1.09,15.49-.02,1.71-.01,3.42,.03,5.13v-.03c4.75-2.23,9.32-4.82,13.66-7.76,6.65-4.51,12.67-9.66,17.09-16.5,.92-1.42,1.54-2.84,1.85-4.27,.5-2.4,.13-4.85-1.13-7.39Z"/>
  <polygon class="cls-1" points="366.92 186.36 366.92 186.37 366.92 186.36 366.92 186.36"/>
  <path class="cls-1" d="M389.14,135.58c-5.58,17.81-14.93,33.62-22.22,50.78,7.16-1.52,13.72-3.33,20.18-5.3,5.17-1.56,10.14-3.44,14.45-6.83,4.86-3.86,6.87-9.05,5.82-14.39-.36-1.77-1.05-3.55-2.09-5.3-2.31-3.97-5.03-7.68-8.11-11.09-2.5-2.8-5.18-5.43-8.03-7.86Z"/>
  <path class="cls-1" d="M260.28,309.31c.46-5.42,1.3-10.79,2.52-16.09,.32-1.36-.09-2.16-1.37-2.73-6.13-2.81-12.51-4.19-19.22-3.08-2.07,.34-4.04,1.17-5.81,2.36-5.32,3.58-8.85,10.35-7.93,16.59,.33,2.96,2.18,5.53,4.88,6.79-.72-4.72-1.96-9.07,.64-13.18h.02c-.52,3.45-.23,6.98,.84,10.32,.98,3.24,2.96,5.23,6.28,5.89,.27,.05,.55,.16,.82,.23,.37,.09,.73,.12,1-.04,.07-.05,.14-.11,.2-.19,0,0,0-.01,0-.02,.39-.56-.25-1.19-.53-1.75-.86-1.77-1.21-3.53-1.22-5.27-.02-2.5,.67-4.97,1.62-7.45,0,.01,0,.02,0,.03,0-.02,.01-.03,.02-.05,.18,1.4,.24,2.82,.19,4.23-.14,2.47,.27,4.94,1.21,7.22,1.36,3.08,4.17,3.96,6.94,2.11,.09-.06,.17-.14,.26-.2,.14-.11,.29-.21,.42-.33,.05-.05,.09-.1,.14-.14,.15-.15,.3-.3,.43-.45,.04-.05,.08-.11,.12-.17,.12-.16,.23-.31,.34-.48,.13-.21,.24-.42,.34-.64,0-.01,.01-.03,.02-.04,.44-.96,.66-2.05,.77-3.17,.22-2.24-.32-4.27-1.29-6.62,.01,0,.02,.01,.03,.02,0-.01,0-.02-.01-.03,1.7,.69,1.96,1.92,2.36,2.93,.72,1.8,2.11,2.92,3.55,4,.42,.32,.75,.5,1,.41,.22-.09,.37-.39,.41-1.03Z"/>
  <path class="cls-1" d="M380.34,269.05c2.67-5.42,1.44-10.06-3.59-13.41-1.16-.74-2.38-1.38-3.65-1.91-4.63-2.03-9.57-2.8-14.5-3.68-.69-.12-1.17-.12-1.5,0-.55,.24-.66,.86-.55,1.92,.62,6.47,1.39,12.98,2.49,19.41,.86,5.41,2.12,10.74,3.77,15.96,4.23-3.23,8.21-6.78,11.91-10.6,2.3-2.23,4.2-4.83,5.62-7.7Z"/>
  <path class="cls-1" d="M363.89,291.09c2.37,7.11,5.54,13.92,9.45,20.3,1.3,2.13,2.68,4.2,4.15,6.23,.63-.96,1.25-1.93,1.86-2.91,.18-.29,.37-.57,.55-.86,.64-1.03,1.25-2.06,1.87-3.11,.14-.24,.29-.48,.43-.72,.59-1.01,1.15-2.02,1.72-3.04,.16-.28,.32-.56,.48-.85,.71-1.31,1.41-2.62,2.08-3.95,.31-.65,.59-1.32,.84-2s.47-1.37,.66-2.06c1.43-4.9-.06-7.76-4.95-9.04-3.09-.81-6.17-1.04-9.26-.89-1.54,.07-3.08,.24-4.62,.47-1.54,.23-3.08,.53-4.61,.86-1.1,.24-.92,.78-.65,1.56Z"/>
  <path class="cls-1" d="M358.35,481.43s0-.01,0-.02c.07-.43,.16-.85,.26-1.27,.02-.1,.05-.19,.08-.29,.08-.32,.17-.65,.27-.97,.08-.26,.18-.5,.27-.75,.06-.15,.1-.31,.16-.46,1.27-3.21,3.45-6.06,6.57-8.51,.51-.4,.8-.71,.85-1.03,.03-.31-.18-.64-.67-1.06-2.88-2.41-11.77-3.53-15.64,1.19-4.88,5.97-6.89,12.97-7.84,20.42-.01,.12-.02,.22-.02,.32,0,.7,.36,.96,1.19,.95,2.25-.05,4.51,0,6.76,0h0c1.26,.01,2.51,0,3.77,0,.54,0,1.08,0,1.61,.01,.31,0,.62,0,.93,0,1.11,.04,1.45-.25,1.41-1.16,0-.13-.02-.28-.04-.43-.33-2.45-.31-4.76,.06-6.94Z"/>
  <path class="cls-1" d="M299.84,488.27c-1-7.79,1.44-14.27,7.72-19.11,1.11-.85,1.04-1.32,.09-2.11-2.69-2.2-9.89-3.16-14.22-.04-.61,.45-1.17,.98-1.65,1.6-4.54,5.92-6.47,12.67-7.51,19.85-.17,1.17,.27,1.55,1.44,1.51,2.1-.06,4.2,0,6.3,0,2.1,0,4.19-.06,6.28,0,.48,.02,.84-.02,1.1-.13,.42-.21,.55-.67,.44-1.56Z"/>
  <path class="cls-1" d="M292.02,489.95s0,0,0,0c0,0-.01,0-.02,0h.03Z"/>
  <path class="cls-1" d="M340.44,488.32c-.32-6.45,1.8-12.26,4.97-17.73,.69-1.19,.42-1.78-.52-2.49-2.28-1.73-5.8-2.03-8.85-1.15-1.83,.53-3.49,1.49-4.61,2.81-4.5,5.31-6.13,11.5-6.28,18.31,0,1.65,.62,1.97,2.01,1.92,1.87-.06,3.75,0,5.62,0v-.02s.02,0,.03,0h0c1.03,0,2.07-.02,3.1-.03,.74,0,1.49,0,2.23,.02,.18,0,.36,0,.54,0,.3,.01,.56,0,.79-.03,.68-.12,1-.53,.96-1.6Z"/>
  <path class="cls-1" d="M282,488.18c-.27-6.22,1.66-11.89,4.76-17.14,1.07-1.82,.47-2.56-1.01-3.36-3.87-2.14-8.68-1.53-11.88,1.52-.04,.04-.07,.07-.11,.11-.31,.29-.6,.59-.88,.89-4.82,5.18-6.03,11.7-6.08,18.62,0,1.08,.66,1.11,1.44,1.1h6.1v.06c1.96,0,3.92-.08,5.88,0,.5,.03,.88-.01,1.17-.14,.48-.24,.67-.76,.62-1.65Z"/>
  <path class="cls-1" d="M320.21,489.97c1.11,.04,1.47-.33,1.57-1.44,.39-4.67,.83-9.35,2.53-13.79h-.59l-.39,1.21s-.03-.04-.05-.07v.04c-.66-1.06-1.49-2.01-2.45-2.8-.82-.68-1.69-1.25-2.6-1.71-3.96-1.96-8.53-1.55-11.98,3.37-3.01,4.31-3.59,9.04-3.3,14.08,.03,.53,.21,.81,.49,.97,.24,.11,.54,.13,.89,.13,5.28,0,10.57-.04,15.87,0Z"/>
  <path class="cls-1" d="M323.74,474.71v.03s.58,0,.58,0c0,0,0-.02,.01-.03h-.59Z"/>
  <path class="cls-1" d="M379.82,320.3c-.03,.26,.12,.54,.43,.89,.28,.34,.56,.67,.85,1,.22,.26,.45,.51,.68,.76,.56,.62,1.14,1.22,1.74,1.8,.26,.25,.52,.5,.78,.74,.3,.28,.61,.57,.92,.84,3.04,2.57,5.92,5.33,9.3,7.48,.62,.43,1.29,1.2,1.93,0,1.69-3.13,3.59-6.21,3.95-9.81,.07-.66,.1-1.3,.1-1.91-.05-4.33-2.03-7.23-7.05-6.95v-.04c-5.03,.17-9.05,2.16-12.94,4.44-.42,.25-.65,.48-.69,.74Z"/>
  <path class="cls-1" d="M419.24,337.2c-.92-3.19-2.12-6.29-3.59-9.27-1.5-2.83-3.32-3.16-5.79-1.14-3.62,2.95-7.1,6.07-10.94,9.39,6.6,2.86,13.1,3.18,19.77,2.19,.45-.07,.64-.23,.7-.43,.03-.22-.06-.49-.13-.74Z"/>
  <path class="cls-1" d="M424.21,337.24c4.68-1.3,9.18-3.19,13.39-5.62,.37-.21,.66-.42,.74-.65,.04-.23-.09-.49-.52-.83-1.93-1.53-3.72-3.24-5.75-4.66-2.16-1.55-3.64-1.26-5.2,.88-2.08,2.78-3.39,6.06-3.82,9.5h.01c-.29,1.59,.24,1.63,1.14,1.39Z"/>
  <path class="cls-1" d="M271.09,373.14l1.18,.05c-.04-.23-.11-.49-.23-.68-.04-.05-.08-.1-.13-.14-.02-.02-.03-.04-.05-.05-.09-.06-.2-.09-.33-.09-.5,0-.34,.56-.43,.92Z"/>
  <polygon class="cls-1" points="271.09 373.14 272.27 373.19 271.09 373.14 271.09 373.14"/>
  <path class="cls-1" d="M273.02,402.61s.03,.08,.06,.11c.02,.02,.05,.04,.08,.05l-.14-.17Z"/>
  <path class="cls-1" d="M273.16,402.78s.09,.03,.14,.03l-.29-.36c0,.05,0,.11,.01,.16l.14,.17Z"/>
  <path class="cls-2" d="M296.43,299.51l.03-.03-.03,.02s0,0,0,.01Z"/>
  <path id="non" class="cls-2" d="M458.84,306.35c-.87,1.56-.8,3.21-1.44,4.68-3.33,7.69-9.12,13.16-15.78,17.89-.95,.68-1.44,.4-2.16-.27-1.6-1.47-3.26-2.9-4.97-4.23-4.25-3.28-7.09-2.7-9.81,1.86-1.57,2.77-2.7,5.77-3.34,8.89-.79-.94-.87-1.9-1.16-2.79-.69-2.12-1.63-4.16-2.8-6.06-2.18-3.49-5.21-4.06-8.46-1.57-2.07,1.6-3.95,3.42-5.93,5.13-.73,.8-1.62,1.43-2.62,1.87-.52-.78-.01-1.27,.24-1.72,1.62-2.94,2.24-6.33,1.77-9.66-.39-3.82-2.54-6.19-6.34-7.02-3.8-.83-7.31,.27-10.78,1.63-1.54,.61-3.03,1.37-4.72,2.08,.12-.8,.46-1.54,.98-2.16,3.25-4.98,6.66-9.89,8.46-15.64,2.06-6.7-.4-10.87-7.19-12.45-4.9-1.14-9.8-.73-14.7-.12h-.69l.29-.41c1.55-1.3,3.12-2.58,4.65-3.9,4.02-3.49,7.83-7.16,10.19-12.06,3.25-6.76,1.46-12.94-4.93-16.87-2.94-1.73-6.16-2.97-9.5-3.64-2.6-.59-5.24-1.02-8.22-1.59,1.83-.96,3.33-1.73,4.77-2.51,6.44-3.36,12.38-7.61,17.65-12.62,2.51-2.42,4.76-5.11,6.69-8.01,4.13-6.23,3.87-11.47-.83-18.11-4.08-5.71-9.79-9.64-15.42-13.62-1.85-1.32-3.74-2.57-5.93-4.06,1.11-.39,1.78-.62,2.44-.86,4.85-1.73,9.98-2.43,14.92-3.92,6.25-1.89,12.49-3.68,17.92-7.58,7.17-5.13,11.26-14.93,4.79-24.44-2.41-3.71-5.08-7.25-8-10.57-2.62-2.88-5.48-5.5-8.42-8.17,2.22-1.34,4.3-2.52,6.3-3.83,9.66-6.38,18.33-13.79,24.24-23.96,5.22-8.96,3.91-17.83-4.05-24.4-10.27-8.51-22.34-13.32-35.43-15.55-1.67-.29-1.96-.54-1.08-2.01,3-5.22,5.03-10.95,6-16.9,1.64-9.16,1.47-18.24-1.68-27.02-2.42-6.72-6.5-12.01-14.25-13.11-.4-.07-.88-.08-.88-.72h-5.67c.14,.63-.35,.68-.76,.72-8.46,1.06-16.58,3.93-23.83,8.41-4.98,2.98-9.12,3.02-14.63,1.02-16.09-5.77-33.14-8.41-50.22-7.78-14.36,.43-28.45,2.08-42.3,6.02-13.41,3.83-25.41,10.49-37.13,17.83-12.61,7.9-23.75,17.4-32.89,29.16-12.9,16.61-20.44,35.45-23.08,56.29-.43,3.46-.64,6.94-.96,10.4v8.52c.2,4.36,.65,8.71,1.36,13.02,3.49,19.88,13.3,36.07,28.98,48.59,16.37,13.08,35.5,18.5,56.15,18.69,21.98,.21,42.71-5.28,62.19-15.21,14.66-7.54,28.2-16.72,39.75-28.62,.39-.41,.68-1.17,1.53-.88,.37,1.05-.28,1.84-.66,2.67-8.54,18.98-19.93,36.23-32.72,52.51-14.1,17.94-24.51,37.62-30.49,59.63-.43,1.57-.87,1.57-2.16,.95-6.64-3.22-13.46-4.96-20.85-2.99-8.96,2.39-15.47,11.03-15.1,20.19,.18,4.21,2.7,8.36,6.02,9.24,1.6,.37,3.13,1.02,4.51,1.92,3.9,2.76,8.35,1.44,12.58,1.79,.65-.08,1.27-.31,1.8-.68,2.61-1.25,4.34-3.8,4.54-6.68,4.32,2.44,4.41,2.44,4.17,6.81-.97,16.82,2.24,33.61,9.35,48.88,.48,.97,.48,2.1,0,3.07-2.12,4.88-3.16,10.15-3.07,15.47,.35,16.25,7.91,28.85,20.39,38.65,7.62,6,16.59,8.44,26.25,8.38,1.11,0,2.14-.21,1.87,1.63-1.49,10.28-4.69,20.08-8.01,29.97-5.97-2.86-11.38-1.99-16.19,2.26-1.05,.91-1.51,.88-2.56,0-3.94-3.38-9.66-3.67-13.93-.72-2.5,1.63-4.62,3.79-6.2,6.33-3.86,6.06-4.13,12.88-4.36,19.72-.05,1.7,1.24,2.08,2.71,2.08,18.46,.09,36.91,.25,55.35,.25,20.77,0,41.54-.06,62.31,0,2.18,0,3.24-.81,3.91-2.88,1.98-6.05,4.1-12.08,6.29-18.06,3.59-9.82,8.6-19.04,12.06-28.91,3.09-8.83,6.25-17.66,7.58-26.96,1.18-7.36,0-14.91-3.35-21.57-.55-1.11-.68-1.71,.8-2.16,5.59-1.7,10.7-4.48,15.66-7.5,12.22-7.46,22.16-17.1,28.22-30.29,6.87-14.87,8.72-30.42,5.24-46.5-.19-.88-.2-1.98-1.27-2.62Zm-35.78,29.57v-.06c.42-3.47,1.74-6.77,3.83-9.57,1.56-2.16,3.01-2.42,5.2-.88,2.01,1.44,3.81,3.13,5.75,4.66,.47,.37,.6,.65,.51,.9-.05,.26-.35,.48-.76,.72-4.21,2.43-8.7,4.32-13.39,5.62-.91,.24-1.46,.2-1.14-1.39Zm-13.2-9.19c2.47-2.02,4.31-1.69,5.79,1.14,1.47,2.97,2.68,6.08,3.59,9.27,.09,.28,.19,.57,.12,.81-.04,.23-.21,.42-.7,.49-6.68,.98-13.2,.67-19.81-2.21h0s.04-.03,.06-.05c-.02,0-.03-.01-.05-.02h0c3.87-3.33,7.37-6.47,11.01-9.43Zm-16.41-11.64v.04c5.04-.28,7.02,2.64,7.05,6.98,0,.62-.03,1.27-.1,1.94-.36,3.59-2.26,6.68-3.95,9.81-.65,1.16-1.32,.4-1.93,0-3.38-2.14-6.26-4.92-9.3-7.48-.32-.28-.61-.59-.92-.88-.26-.24-.52-.49-.78-.74-.6-.58-1.18-1.19-1.74-1.8-.23-.25-.45-.5-.68-.76-.28-.32-.58-.63-.86-.96-.32-.37-.46-.66-.42-.93,.03-.27,.25-.52,.69-.78,3.89-2.31,7.91-4.26,12.94-4.44Zm-24.29-26.42c1.54-.23,3.08-.4,4.62-.47,3.08-.15,6.17,.08,9.26,.89,4.88,1.29,6.38,4.14,4.95,9.04-.19,.7-.41,1.39-.66,2.06s-.53,1.34-.84,2c-.68,1.33-1.37,2.64-2.08,3.95-.15,.28-.32,.56-.48,.85-.56,1.02-1.13,2.04-1.72,3.04-.14,.24-.29,.48-.43,.72-.61,1.04-1.23,2.08-1.87,3.11-.18,.29-.37,.57-.55,.86-.6,.96-1.21,1.92-1.83,2.86l-.03,.04c-1.46-2.03-2.85-4.1-4.15-6.23-3.9-6.38-7.08-13.19-9.45-20.3-.27-.78-.45-1.32,.65-1.56,1.54-.33,3.07-.63,4.61-.86Zm3.97-34.94c1.27,.53,2.49,1.17,3.65,1.91,5,3.34,6.24,7.99,3.59,13.41-1.42,2.87-3.32,5.47-5.62,7.7-3.71,3.84-7.7,7.39-11.94,10.62,0,0,0,0,0,.01l-.05,.02s.03-.02,.05-.04c0,0,0-.01,0-.02-.01,0-.02,.02-.03,.02,0,0,0,0,0,.01h-.03s.02,0,.03-.01c-1.65-5.23-2.91-10.56-3.77-15.97-1.1-6.43-1.88-12.94-2.49-19.41-.1-1.08,0-1.7,.58-1.93,.33-.14,.82-.14,1.53-.02,4.93,.88,9.87,1.66,14.5,3.68Zm-5.75-61.36c4.64,3.34,9.43,6.47,13.72,10.32,2.8,2.41,5.11,5.34,6.81,8.63,1.29,2.57,1.65,5.03,1.13,7.45-.3,1.46-.92,2.9-1.85,4.34-4.42,6.84-10.45,11.99-17.09,16.5-4.34,2.94-8.91,5.54-13.66,7.76v.03c-.04-1.73-.06-3.46-.03-5.19,.06-5.2,.43-10.39,1.09-15.55,1.3-11.31,3.61-22.47,6.91-33.36,.78-2.53,.72-2.52,2.97-.91Zm29.8-48.92c3.07,3.39,5.78,7.08,8.09,11.03,1.05,1.78,1.75,3.58,2.1,5.37,1.08,5.36-.93,10.58-5.8,14.46-4.28,3.39-9.28,5.27-14.45,6.83-6.5,1.97-13.01,3.79-20.2,5.31v-.06h-.01s.01,0,.02,0c7.29-17.16,16.65-32.98,22.21-50.79,0,0,0,0,.01,0,0,0,0,0,0,0,2.85,2.44,5.54,5.07,8.03,7.87Zm-15.63-75.27c.97-.01,1.84,.32,2.67,.51,10.98,2.62,21.2,6.97,30.13,13.99,5.18,4.08,8.21,9.14,6.69,16.07-.33,1.35-.79,2.67-1.37,3.94-.53,1.18-1.15,2.31-1.88,3.38-.11,.16-.22,.31-.33,.48-.62,.96-1.27,1.89-1.94,2.8-.05,.07-.11,.14-.16,.21-4.07,5.43-8.95,9.99-14.32,14.04-.06,.05-.12,.09-.18,.13-.84,.63-1.7,1.25-2.57,1.86-.63,.45-1.27,.88-1.91,1.32-.22,.15-.44,.3-.66,.44-.49,.33-.98,.67-1.48,.99-1.15,.72-2.34,1.44-3.52,2.16-.25,.07-.5,.11-.75,.13v-.02c2.75-21.67-1.05-42.26-9.45-62.3,.35-.1,.68-.14,1.01-.15Zm-47.12-47.98c10.27-5.42,20.34-10.65,31.95-11.26,6.1-.32,10.9,2.24,14.05,7.29,.91,1.45,1.69,3.1,2.32,4.95,.84,2.51,1.43,5.04,1.81,7.58,.85,5.6,.65,11.27-.27,16.97-.83,5.01-2.11,9.93-3.82,14.71-.37,1.31-1,2.53-1.85,3.59-10-19.34-24.77-33.7-44.18-43.79v-.04Zm-74.56,290.14c-.25,.1-.59-.08-1.02-.4-1.46-1.09-2.83-2.21-3.55-4.01-.4-.99-.66-2.18-2.32-2.9,.97,2.34,1.5,4.41,1.28,6.59-.11,1.11-.34,2.2-.79,3.18,0,.01-.01,.03-.02,.04-.1,.22-.21,.44-.34,.64-.1,.17-.22,.32-.34,.48-.04,.06-.08,.12-.12,.17-.13,.16-.28,.31-.43,.45-.05,.05-.09,.1-.14,.14-.13,.12-.28,.22-.42,.33-.08,.06-.16,.13-.25,.2,0,0,0,0-.01,0,0,0,0,0,0,0-2.77,1.85-5.6,.98-6.96-2.11-.94-2.29-1.36-4.76-1.21-7.22,.06-1.4,0-2.8-.18-4.19-.96,2.45-1.64,4.92-1.62,7.41,.01,1.74,.37,3.49,1.23,5.26,.28,.56,1.01,1.13,.52,1.77,0,0,0,.02-.02,.03-.06,.07-.12,.13-.19,.17-.29,.19-.64,.15-1,.04-.28-.07-.57-.16-.83-.22-3.32-.66-5.31-2.65-6.28-5.89-1.07-3.34-1.36-6.88-.83-10.34-2.6,4.12-1.32,8.48-.63,13.21,0,0-.02-.01-.03-.01,0,0,0,.02,0,.03-2.71-1.25-4.57-3.83-4.9-6.8-.93-6.25,2.61-13.04,7.95-16.61,1.78-1.2,3.76-2.03,5.83-2.38,6.71-1.11,13.09,.27,19.22,3.08,1.28,.59,1.7,1.37,1.37,2.73-1.22,5.3-2.06,10.67-2.52,16.09-.06,.66-.21,.96-.44,1.04Zm2.89,8.25c.81-22.25,6.95-42.91,16.97-62.66,7.02-13.85,16.71-25.2,29.51-33.9,2.36-1.6,4.8-3,7.47-3.87,1.59-.52,3.25-.86,5.02-.93,2.37-.19,4.65,1,5.84,3.06,2.55,3.9,3.35,8.34,3.59,12.84,.56,12.1,.04,24.23-1.56,36.24-.82,6.62-1.31,13.27-1.98,20.19,0,0,0,0,.01,0h-.01s0,0,0,0c-.01,0-.02-.01-.04-.02,0,.01,0,.02,0,.04,0,0,0,0,0,0v.03s0-.02,0-.03c-2.22-1-4.23-1.97-6.29-2.81-5.75-2.34-11.61-3.22-17.64-1.63-.39,.11-.79,.22-1.19,.35-8.31,2.65-14.38,11.23-13.95,19.95,.23,4.97,2.78,8.07,7.81,9.52,.33,.13,.65,.3,.94,.5,1.24,.74,2.53,1.41,3.85,2.01,3.66,1.4,7.53,1.15,11.22,.53,.33-.05,.64-.14,.94-.24,2.21-.77,3.74-2.79,4.22-5.3,.17-.9,.4-1.28,.73-1.31,.33-.07,.76,.23,1.32,.7,1.55,1.32,3.31,2.38,5.21,3.13,1.52,.57,1.81,1.44,1.8,2.94-.08,11.19,.62,22.33,2.92,33.31,.55,2.62,1.08,5.26,1.84,7.83,.47,1.44,.25,3.02-.6,4.28-6.17,10.51-7.98,21.66-4.63,33.48,1.01,3.49,2.42,6.85,4.19,10.01,.43,.49,.63,1.15,.55,1.8-.02,0-.03,0-.05,0,0,0,0,.01,0,.02-4.96-.32-9.85-1.34-14.53-3.03-10.04-3.87-19.65-8.58-27.83-15.81-6.72-5.94-11.47-13.33-15.29-21.23-7.52-15.55-11.08-32.72-10.37-49.97Zm18.62,171.25c-.29,.15-.7,.2-1.23,.17-1.96-.1-3.92,0-5.88,0l.03-.06h-6.1c-.78,0-1.44,0-1.44-1.1,.05-6.93,1.27-13.46,6.11-18.65,.28-.3,.58-.6,.88-.89,.04-.04,.07-.07,.11-.11,0,0,0,0,0,0,0,0,.02-.02,.03-.03,3.21-3.06,8.04-3.68,11.91-1.52,1.48,.81,2.08,1.55,1.01,3.36-3.1,5.25-5.03,10.93-4.76,17.14,.05,.95-.16,1.46-.68,1.68Zm18.02,0c-.26,.13-.63,.17-1.13,.15-2.1-.07-4.2,0-6.3,0h.03c-2.11,0-4.21-.04-6.31,0-1.14,0-1.57-.34-1.44-1.51,1.01-7.19,2.97-13.93,7.51-19.85,.48-.63,1.05-1.17,1.68-1.62,4.32-3.14,11.55-2.18,14.25,.02,.96,.79,1.03,1.26-.09,2.11-6.28,4.85-8.72,11.33-7.72,19.11,.12,.92-.02,1.38-.47,1.58Zm22.44-1.26c-.1,1.08-.47,1.44-1.57,1.44h-15.87c-.38,0-.7-.03-.95-.16-.32-.14-.52-.42-.55-.99-.32-5.03,.29-9.78,3.3-14.08,3.47-4.95,8.06-5.34,12.04-3.35,.93,.46,1.82,1.04,2.66,1.74,.94,.77,1.75,1.7,2.39,2.74l.38-1.16c-2.01-5.27-5.85-7.67-11.5-7.38-1.62,.15-3.06-1.04-3.21-2.66-.05-.57,.06-1.14,.33-1.65,3.68-7.98,6.27-16.41,7.71-25.07,.25-1.42,.35-2.87,.31-4.31,0-.56,.09-.92,.32-1.17,.22-.26,.59-.4,1.18-.46,1.86-.2,3.67-.53,5.43-.99,5.27-1.37,10.14-3.81,14.71-6.97,.52-.37,1.29-.72,.84-1.51-.33-.58-.8-.45-1.24-.23-.14,.08-.28,.16-.4,.23-1.54,.88-3.12,1.68-4.73,2.39-6.96,3.07-14.57,4.49-22.21,4.11-9.97-.5-18.89-3.54-26.22-10.57l-.37-.36c-1.05-.71-1.96-1.61-2.67-2.66l-.38-.39-.05-.05-.36-.4c-3.11-3.3-5.65-7.08-7.53-11.21l-.4-.54-.06-.07s-.08-.05-.11-.09c-.05-.05-.09-.11-.11-.18l-.06-.08-1.88-5.14-.24-.5,.05-.08c-2.6-7.67-2.53-15.99,.2-23.61h0c.11-.35-.07-.96,.44-.96,.15,0,.27,.06,.38,.14,.02,.01,.03,.04,.05,.05,.05,.04,.1,.08,.13,.14,.14,.2,.23,.47,.28,.73,3.21,5.59,6.69,11.03,11.26,15.66,.9,.92,1.83,1.79,2.78,2.64,6.73,5.95,14.56,10.17,22.74,13.9,5.57,2.54,11.21,4.72,17.32,5.51,.49,.12,1,.17,1.51,.14,3.04-.59,5.05,.54,6.82,2.55,.41,.46,.81,.97,1.2,1.51,1.16,1.62,2.45,3.14,3.84,4.54,.14,.14,.28,.26,.42,.4,.32,.31,.64,.63,.97,.93,1.95,1.77,4.09,3.34,6.39,4.68,.25,.14,.45,.29,.63,.43,1.19,.91,1.17,1.88,.65,3.3-3.39,9.35-6.77,18.79-10.58,28.04-.24,.6-.51,1.19-.72,1.81-.89,2.58-2.12,4.65-4.84,5.98-3.98,1.95-6.28,5.69-8.34,9.49-1.72,4.47-2.13,9.14-2.54,13.82Zm30.52-58.78c.38-1.12,.86-1.12,1.86-.72,5.51,2.27,11.44,3.34,17.4,3.13,1.69-.06,1.47,.77,1.32,1.89-1.15,8.21-3.47,16.12-6.02,23.98-.58,1.79-.7,4.23-1.83,5.22-1.13,.98-3.14-.8-4.89-1.03-4.55-.59-8.24,1.04-11.5,3.92-.84,.74-1.28,1.07-2.19,.14-1.85-1.9-4.28-2.65-7.12-3l.04-.04c5.37-10.97,9.29-22.18,12.94-33.49Zm-12.88,60.15c-.23,.04-.51,.05-.82,.04-.17,0-.34,0-.52-.01-.74-.02-1.49-.02-2.23-.02-1.03,0-2.07,.03-3.1,.03v.02s-.02,0-.03,0h0c-1.88,0-3.77-.04-5.65,0-1.39,.05-2.05-.27-2.01-1.92,.15-6.79,1.78-13,6.28-18.31,1.12-1.33,2.8-2.29,4.64-2.82,3.06-.89,6.59-.6,8.87,1.14,.94,.71,1.24,1.31,.52,2.49-3.18,5.47-5.29,11.26-4.97,17.73,.05,1.1-.29,1.5-.98,1.61Zm17.43,.06c-.31-.01-.62-.02-.93-.02-.54,0-1.08-.01-1.61-.01-1.26,0-2.51,.03-3.77,.03h0c-2.25-.01-4.51-.06-6.76-.01-.84,0-1.2-.26-1.19-.96,0-.1,0-.21,.02-.33,.94-7.48,2.95-14.46,7.84-20.42,3.86-4.72,12.76-3.63,15.64-1.19,.5,.43,.72,.76,.67,1.08-.04,.32-.33,.64-.85,1.04-3.13,2.45-5.31,5.29-6.57,8.5-.06,.15-.11,.31-.16,.46-.09,.25-.19,.5-.27,.75-.1,.32-.18,.64-.27,.97-.02,.1-.06,.19-.08,.29-.1,.42-.19,.84-.26,1.27,0,0,0,.01,0,.02-.37,2.17-.39,4.48-.06,6.93,.02,.16,.03,.31,.04,.45,.04,.93-.29,1.22-1.41,1.18Zm101.59-163.19c-1.33,20.11-9.23,36.47-24.02,48.88-2.2,1.85-4.55,3.63-7.06,5.3-5.45,3.75-11.25,6.94-17.33,9.54-1.5,.62-2.32,.54-3.31-.95-3.56-5.19-8.59-9.2-14.44-11.5-1.81-.88-3.85-1.19-5.84-.87-.07,.43,.21,.55,.47,.64,12.49,4.25,19.34,13.46,22.78,25.72,1.44,5.11,1.17,10.23,.17,15.31-2.32,11.83-7.11,22.84-11.5,33.97-4.39,11.13-9.14,21.93-12.85,33.23-.82,2.52-1.18,3.44-2.39,3.76-.72,.2-1.75,.19-3.39,.19-5.49-.04-11.01-.07-16.53,0-1.47,.02-2.01-.37-2.07-1.91-.14-4.6,.43-8.98,3.13-12.87,.52-.74,1.06-1.4,1.64-1.98,.05-.05,.1-.09,.15-.14,.23-.22,.45-.44,.69-.63,3.84-3.19,8.67-2.91,12.94,1.06,.41,.44,.78,.92,1.11,1.43,.97-1.27,.45-2.16-.09-2.95-2.17-3.15-5.15-4.97-9.02-4.67-1.65,.19-3.28-.52-4.26-1.87-.48-.56-.67-.88-.28-1.65,4.31-8.42,6.71-17.43,8.37-26.69,.29-1.64-.49-3.85,.58-4.79,0,0,.02-.01,.03-.02,0,0,0,0,0,0,1.12-.98,3.15-.72,4.77-1.02,6.1-1.19,11.5-3.98,16.57-7.43,.18-.12,.38-.24,.55-.37,.26-.22,.42-.49,.22-.92-.41-.86-1.12-.47-1.66-.14-5.49,3.29-11.61,5.39-17.97,6.16-8.99,1.21-17.85,.45-26.05-3.87-13-6.84-20.93-17.79-24.38-31.82-2.79-11.51,.23-21.97,6.81-31.33,.38-.55,.77-1.09,1.18-1.63,4.56-6.26,10.71-11.19,17.81-14.28,.68-.29,1.68,0,2.28-.9,.08-.13,.16-.28,.22-.46-4.86,.59-8.81,2.62-12.85,5.03s-7.28,5.71-10.44,9.96c-.68-3.04-1.34-5.58-1.82-8.14-1.99-10.64-2.93-21.44-2.8-32.26,0-.69,.07-1.16,.24-1.46,.27-.54,.85-.56,2-.24,5.41,1.44,10.88,1.75,16.32,.05,2.36-.75,4.53-2.01,6.35-3.69,.42-.38,.82-.77,1.12-1.26,.3-.5,.5-1.1,.48-1.89-6.34,5.88-13.97,6.18-21.52,4.76-7.51-1.42-14.37-4.28-17.85-12.08,.16,2.01,.95,3.7,.88,5.57-.04,.98-.15,1.92-.4,2.81-.39,1.46-1.13,2.76-2.51,3.75-2.61,1.89-5.47,1.11-6.86-1.82-1.04-2.33-1.5-4.87-1.34-7.42,.05-1.43,0-2.86-.16-4.29-1.66,4.13-2.43,8.27-.44,12.56,.29,.63,1.07,1.34,.58,1.95,0,0,0,0,0,0,0,.01,0,.02-.02,.03-.48,.6-1.34,.07-2.06-.06-3.15-.6-5.08-2.44-6.14-5.48-1.28-3.67-1.29-7.38-.9-11.16-2,2.65-1.83,5.69-1.49,8.74,.15,1.5,.47,2.98,.72,4.53-.02,0-.05-.02-.07-.02,0,.02,0,.04,.01,.07-3-.88-5.17-4.56-5.03-8.54,.02-.41,.05-.82,.1-1.23,.44-3.93,2.12-7.4,4.58-10.13,.05-.05,.09-.1,.14-.15,.32-.35,.66-.69,1.01-1.01,.14-.13,.29-.26,.44-.38,.27-.23,.53-.46,.81-.67,.25-.2,.52-.38,.78-.56,.18-.13,.37-.26,.56-.38,.37-.24,.75-.46,1.14-.67,.09-.05,.19-.1,.28-.15,.49-.25,.99-.48,1.5-.69,0,0,0,0,0,0,2.36-.97,4.96-1.47,7.67-1.35,.41,.02,.82,.05,1.23,.1,10.98,1.04,19.41,6.68,27.62,13.15,.21,.16,.43,.3,.8,.55,.08-1-.46-1.6-.76-2.24-2.97-6.35-3.96-13.46-2.82-20.38,.44-2.59,1.42-5.09,3.85-6.28,.46-.24,.95-.44,1.51-.57,3.45-.78,5.65,1.74,7.59,4.1,2.36,2.88,3.46,6.35,4.52,9.83,.55,1.82,1,3.67,1.53,5.5-.46-5.75-1.7-11.29-4.61-16.37-.73-1.26-1.65-2.4-2.72-3.39-2.95-2.77-6.74-3.02-9.66-.86-.66,.5-1.28,1.11-1.83,1.86-1.74,2.35-2.72,5.18-2.79,8.11-.19,4.76,.35,9.51,1.6,14.1-.03-.02-.05-.04-.08-.05,0,.03,.02,.07,.02,.1-1.8-1.2-3.14-2.08-4.48-2.99-.57-.39-.52-1.01-.47-1.59,.79-8.01,1.58-16.02,2.37-24.02,1.23-12.47,1.93-24.92,.19-37.38-.39-2.89-1.34-5.67-2.8-8.19-1.97-3.36-4.78-4.82-8.73-4.39-6.28,.68-11.19,4.12-16.14,7.59-.95,.68-1.77,1.58-2.82,2.28-.64,.43-1.37,.79-2.28,.96,5.02-6.66,9.5-13.3,13.97-19.95,8.4-12.52,15.76-25.58,20.08-40.16,.27-.91,.7-1.75,1.27-2.51,3.35-4.39,6.22-9.13,8.55-14.14,.25-.87,1.07-1.44,1.96-1.4,.05,0,.1,0,.15,0,2.04,0,4.06-.46,5.9-1.34,1.04-.45,1.69-1.32,1.27-2.44-.11-.28-.25-.46-.42-.57-.51-.31-1.25-.03-1.83,.17-1.53,.52-2.97,.77-4.32,.78-4.06,.02-7.39-2.13-10.3-5.62-.39-.47-.69-1.46-1.35-1.37-.1,.01-.2,.05-.31,.12-.91,.52-.35,1.62-.05,2.4,.88,2.58,2.67,4.74,5.03,6.1,1.44,.78,1.52,1.44,.84,2.88-4.73,9.84-11.43,18.13-19.54,25.35-13.79,12.28-29.12,22.19-46.28,28.98-15.02,5.95-30.53,9.65-46.66,9.73-2.31,.01-4.63-.05-6.96-.19-20.37-1.19-38.97-7.33-54.07-21.57-12.77-12.02-21.01-26.66-23.27-44.2-3.44-26.73,1.74-51.73,16.04-74.67,9.39-15.05,21.98-26.91,36.93-36.33,7.56-4.76,15.12-9.52,23.31-13.17,2.61-1.15,5.25-2.18,7.92-3.12,6.19-2.19,12.53-3.81,18.98-4.96,.24-.04,.48-.1,.72-.14,.18-.03,.35-.05,.53-.08,2.98-.51,5.98-.93,9.01-1.25,1.79-.2,3.58-.36,5.37-.51,14.21-1.16,28.51-.62,42.6,1.65,24.28,4.01,44.25,15.65,60.31,34.15,7.76,8.94,12.28,19.67,16.05,30.68,4.21,12.3,6.51,24.8,6.32,37.49-.08,5.78-.68,11.59-1.85,17.45-1.19,5.93-4.02,11.33-6.33,16.88-3.81,9.12-8.46,17.83-12.54,26.81-1.78,4.01-3.37,8.1-4.78,12.25-2.63,7.78-4.61,15.77-5.89,23.89-1.82,10.83-3.37,21.72-2.88,32.7,.88,19.85,4.1,39.26,12.88,57.36,5.13,10.56,11.87,19.85,21.03,27.43,5.75,4.77,11.72,8.74,19.29,9.81,9.27,1.29,18.11-.4,26.54-4.12,8.83-3.89,16.39-9.41,22.28-16.94,.84-1.08,1.65-2.19,2.41-3.35,.1-.16,.23-.3,.43-.53,.11-.13,.24-.27,.41-.47,.51,3.45,.63,6.95,.37,10.42Z"/>
  <path class="cls-2" d="M330.85,317.23c5.41,1.44,10.88,1.75,16.31,.05,2.36-.75,4.53-2.01,6.35-3.69,.43-.39,.85-.79,1.15-1.3-.3,.48-.71,.88-1.12,1.26-1.82,1.68-3.99,2.95-6.35,3.69-5.43,1.7-10.91,1.39-16.32-.05-1.14-.32-1.72-.3-2,.24,.28-.49,.86-.5,1.97-.2Z"/>
  <path class="cls-2" d="M345.36,148.29s-.1,0-.15,0c.05,0,.09,0,.14,0,0,0,0,0,0,0Z"/>
  <path class="cls-2" d="M348.51,275.38c2.37,2.85,3.46,6.35,4.52,9.83,.58,1.93,1.05,3.9,1.62,5.83,0-.13-.02-.25-.03-.38-.53-1.83-.98-3.68-1.53-5.5-1.06-3.48-2.16-6.96-4.52-9.83-1.94-2.36-4.14-4.88-7.59-4.1-.56,.13-1.05,.33-1.51,.57,.44-.22,.91-.4,1.45-.53,3.54-.8,5.65,1.74,7.59,4.1Z"/>
  <path class="cls-2" d="M335.73,271.95c-1.74,2.35-2.72,5.18-2.79,8.11-.19,4.72,.34,9.44,1.58,14.01,.03,.02,.05,.04,.08,.05-1.25-4.59-1.79-9.35-1.6-14.1,.07-2.93,1.05-5.76,2.79-8.11,.55-.74,1.17-1.36,1.83-1.86-.68,.5-1.32,1.14-1.89,1.9Z"/>
  <path class="cls-2" d="M301.68,225.47c1.05-.69,1.87-1.6,2.82-2.28,0,0-.01,0-.02,.01-.95,.66-1.76,1.56-2.8,2.26Z"/>
  <path class="cls-2" d="M296.41,299.54l.03-.03s0,0,0-.01l.03-.02,.02-.03-.1,.06,.02,.02-.05,.04c-2.01,2.66-1.83,5.7-1.5,8.75,.14,1.47,.46,2.93,.71,4.46,.02,0,.05,.02,.07,.02-.24-1.55-.57-3.03-.72-4.53-.33-3.05-.51-6.09,1.49-8.74h0s0,0,0,0Z"/>
  <path class="cls-2" d="M352.82,247.23c.88,19.85,4.1,39.26,12.88,57.36,5.13,10.56,11.87,19.85,21.03,27.43,5.78,4.77,11.72,8.74,19.29,9.81,9.29,1.29,18.11-.4,26.54-4.12,8.84-3.9,16.42-9.43,22.31-16.98-5.88,7.53-13.45,13.04-22.28,16.94-8.43,3.72-17.27,5.41-26.54,4.12-7.57-1.06-13.54-5.03-19.29-9.81-9.17-7.58-15.91-16.87-21.03-27.43-8.78-18.09-12-37.5-12.88-57.36-.5-10.98,1.06-21.87,2.88-32.7,1.28-8.13,3.26-16.12,5.89-23.89-2.64,7.79-4.64,15.79-5.92,23.93-1.81,10.83-3.36,21.72-2.88,32.7Z"/>
  <path class="cls-2" d="M304.44,14.93c24.28,4.01,44.26,15.65,60.31,34.15,7.76,8.94,12.28,19.67,16.05,30.68,4.2,12.29,6.5,24.78,6.32,37.46,.19-12.69-2.11-25.19-6.32-37.49-3.77-11.01-8.3-21.75-16.05-30.68-16.06-18.5-36.04-30.13-60.31-34.15-14.09-2.27-28.39-2.82-42.6-1.65,14.21-1.16,28.51-.6,42.6,1.68Z"/>
  <path class="cls-2" d="M310.72,287.06c10.98,1.04,19.41,6.68,27.62,13.15,.22,.17,.45,.31,.86,.59,0-.03,0-.05,0-.08-.37-.25-.6-.4-.8-.55-8.21-6.47-16.64-12.11-27.62-13.15-.41-.05-.82-.08-1.23-.1-2.72-.12-5.31,.38-7.67,1.35,2.71-1.1,5.73-1.56,8.85-1.21Z"/>
  <path class="cls-2" d="M295.21,292.95c.05-.05,.09-.1,.14-.15-.05,.05-.1,.1-.14,.15Z"/>
  <path class="cls-2" d="M300.36,288.97c.49-.25,.99-.49,1.5-.69-.51,.21-1.01,.44-1.5,.69Z"/>
  <path class="cls-2" d="M297.6,290.73c.25-.2,.52-.38,.78-.56-.26,.18-.53,.37-.78,.56Z"/>
  <path class="cls-2" d="M227.23,20.19c6.19-2.18,12.53-3.8,18.98-4.96-6.45,1.16-12.79,2.78-18.98,4.96Z"/>
  <path class="cls-2" d="M304.92,314.29c.29,.62,1.03,1.32,.6,1.91,0,0,0,0,0,0,.49-.61-.29-1.32-.58-1.95-1.99-4.29-1.22-8.44,.44-12.56,0,0,0-.02,0-.03-1.67,4.15-2.47,8.32-.47,12.63Z"/>
  <path class="cls-2" d="M365.95,473.25s.1-.09,.15-.14c-.05,.05-.1,.09-.15,.14Z"/>
  <path class="cls-2" d="M298.94,289.79c.37-.24,.75-.46,1.14-.67-.39,.21-.77,.43-1.14,.67Z"/>
  <path class="cls-2" d="M246.94,15.09c.18-.03,.35-.05,.53-.08-.18,.03-.35,.05-.53,.08Z"/>
  <path class="cls-2" d="M296.36,291.79c.14-.13,.29-.26,.44-.38-.15,.13-.29,.25-.44,.38Z"/>
  <path class="cls-2" d="M316.63,308.7c-.03,.96-.14,1.89-.37,2.77,.24-.89,.36-1.83,.4-2.81,.07-1.87-.72-3.56-.88-5.57-.01-.03-.03-.06-.04-.09,.13,2.07,.96,3.79,.89,5.7Z"/>
  <path class="cls-2" d="M386.93,377.86c12.49,4.25,19.34,13.46,22.78,25.72,1.44,5.11,1.17,10.23,.17,15.31-2.34,11.83-7.15,22.92-11.5,33.97s-9.14,21.93-12.85,33.23c-.83,2.49-1.18,3.4-2.36,3.73,1.21-.32,1.57-1.24,2.39-3.76,3.7-11.3,8.45-22.1,12.85-33.23,4.39-11.13,9.18-22.14,11.5-33.97,1-5.08,1.27-10.2-.17-15.31-3.44-12.26-10.29-21.47-22.78-25.72-.26-.08-.54-.21-.47-.64,0,0-.02,0-.03,0-.09,.45,.2,.58,.47,.66Z"/>
  <path class="cls-2" d="M397.49,423.91c.19-.13,.41-.25,.58-.4-.17,.13-.37,.25-.55,.37-5.07,3.45-10.47,6.23-16.57,7.43-1.62,.3-3.65,.04-4.77,1.02,0,0,0,0,0,0,1.08-.92,3.13-.69,4.74-1,6.1-1.19,11.49-3.98,16.58-7.43Z"/>
  <path class="cls-2" d="M350.26,144.1c-1.53,.52-2.96,.77-4.31,.78,1.36,0,2.79-.25,4.32-.78,.58-.2,1.32-.48,1.83-.17-.51-.33-1.26-.03-1.84,.17Z"/>
  <path class="cls-2" d="M379.69,473.58c.41,.45,.79,.93,1.12,1.44,0-.01,.01-.02,.02-.04-.33-.51-.7-.99-1.11-1.43-4.27-3.97-9.1-4.26-12.94-1.06,3.83-3.16,8.65-2.87,12.9,1.09Z"/>
  <path class="cls-2" d="M333.97,137.99c-.89,.52-.35,1.62-.06,2.4,.88,2.58,2.67,4.74,5.03,6.1,1.42,.78,1.56,1.44,.84,2.88-4.72,9.84-11.43,18.16-19.54,25.35-13.79,12.28-29.11,22.18-46.27,28.98-15.01,5.95-30.55,9.65-46.65,9.73,16.13-.08,31.64-3.79,46.66-9.73,17.16-6.79,32.49-16.71,46.28-28.98,8.11-7.22,14.81-15.51,19.54-25.35,.68-1.44,.6-2.09-.84-2.88-2.36-1.35-4.15-3.52-5.03-6.1-.3-.78-.86-1.88,.05-2.4,.11-.06,.22-.1,.31-.12-.1,.01-.2,.05-.32,.12Z"/>
  <path class="cls-2" d="M354.01,345.72c.69-.29,1.71,.02,2.3-.94-.6,.9-1.6,.61-2.28,.9-7.1,3.09-13.25,8.02-17.81,14.28-.41,.54-.8,1.08-1.18,1.63,.37-.53,.76-1.06,1.15-1.59,4.56-6.26,10.71-11.19,17.81-14.28Z"/>
  <path class="cls-2" d="M457.72,316.84c.11-.12,.22-.25,.38-.43,.51,3.45,.63,6.95,.37,10.42-1.33,20.1-9.22,36.42-23.99,48.85,14.79-12.41,22.69-28.77,24.02-48.88,.26-3.48,.13-6.97-.37-10.42-.17,.2-.3,.35-.41,.47Z"/>
  <path class="cls-2" d="M324.71,314.98c1.52,.57,1.8,1.47,1.8,2.94-.08,11.19,.62,22.33,2.92,33.31,.55,2.62,1.08,5.26,1.85,7.83,.47,1.44,.24,3.02-.6,4.28-6.17,10.48-7.98,21.65-4.63,33.48,1.01,3.49,2.42,6.85,4.2,10.01,.42,.49,.62,1.14,.55,1.78,.02,0,.03,0,.05,0,.08-.65-.12-1.3-.55-1.8-1.77-3.17-3.18-6.53-4.19-10.01-3.35-11.83-1.55-22.97,4.63-33.48,.85-1.26,1.07-2.84,.6-4.28-.76-2.57-1.29-5.2-1.84-7.83-2.3-10.98-3-22.12-2.92-33.31,.01-1.5-.28-2.37-1.8-2.94-1.9-.75-3.66-1.8-5.21-3.13-.56-.48-.99-.77-1.32-.7,.32-.03,.73,.27,1.27,.72,1.55,1.33,3.31,2.38,5.21,3.13Z"/>
  <path class="cls-2" d="M327.63,289.57s0,0-.01,0c0,0,0,0,0,0h.01Z"/>
  <path class="cls-2" d="M327.52,220.3c2.54,3.9,3.34,8.34,3.59,12.84,.57,12.11,.05,24.25-1.55,36.27-.82,6.6-1.31,13.23-1.98,20.13,.01,0,.02,.01,.04,.02,.68-6.93,1.16-13.57,1.98-20.19,1.6-12.01,2.12-24.14,1.56-36.24-.24-4.5-1.04-8.94-3.59-12.84-1.2-2.06-3.47-3.25-5.84-3.06-1.77,.07-3.43,.41-5.02,.93,1.57-.51,3.22-.84,4.97-.91,2.37-.19,4.65,1,5.84,3.06Z"/>
  <path class="cls-2" d="M288.46,305.45c.24,4.97,2.78,8.09,7.81,9.52,.33,.13,.65,.29,.94,.49,1.24,.74,2.53,1.41,3.85,2.01,3.66,1.4,7.53,1.15,11.22,.53,.34-.06,.67-.14,.99-.25-.3,.1-.61,.18-.94,.24-3.69,.62-7.56,.87-11.22-.53-1.32-.59-2.61-1.26-3.85-2.01-.3-.2-.61-.36-.94-.5-5.03-1.45-7.58-4.54-7.81-9.52-.42-8.72,5.64-17.3,13.95-19.95,.4-.13,.79-.24,1.19-.35-.41,.11-.82,.23-1.24,.36-8.31,2.65-14.38,11.23-13.95,19.95Z"/>
  <path class="cls-2" d="M348.21,426.12c-.18-.15-.39-.29-.63-.43-2.29-1.33-4.44-2.9-6.39-4.68,1.97,1.79,4.13,3.38,6.45,4.73,.22,.13,.41,.26,.58,.38Z"/>
  <path class="cls-2" d="M311.28,429.02c-9.97-.5-18.89-3.54-26.22-10.57l-.37-.36c-1.05-.71-1.96-1.61-2.67-2.66l-.38-.39v-.05s-.37-.4-.37-.4c-3.11-3.3-5.65-7.08-7.53-11.21l-.4-.54s-.04,0-.06,0c-.04,0-.07-.02-.1-.04l.06,.07,.4,.54c1.88,4.12,4.42,7.91,7.53,11.21l.36,.4,.05,.05,.38,.39c.71,1.05,1.62,1.95,2.67,2.66l.37,.36c7.33,7.03,16.25,10.07,26.22,10.57,7.65,.38,15.25-1.04,22.21-4.11-6.94,3.05-14.53,4.46-22.15,4.08Z"/>
  <path class="cls-2" d="M326.48,410.99c.49,.12,1,.17,1.51,.14,3.01-.58,5.02,.53,6.77,2.5-1.77-2.02-3.78-3.14-6.82-2.55-.51,.03-1.02-.02-1.51-.14-6.11-.78-11.75-2.97-17.32-5.51-8.18-3.73-16.02-7.95-22.74-13.9,6.74,5.98,14.6,10.21,22.79,13.95,5.57,2.54,11.21,4.72,17.32,5.51Z"/>
  <path class="cls-2" d="M272.96,402.39l.05,.06s0,0,0-.01l-1.88-5.14-.24-.5c-2.59-7.67-2.52-15.99,.2-23.61,0-.01,0-.03,.01-.05h-.06c-2.73,7.62-2.8,15.94-.2,23.6l-.05,.08,.24,.5,1.88,5.14,.06,.08s-.02-.06-.02-.09c0-.02,0-.04,0-.06Z"/>
  <path class="cls-2" d="M340.22,420.09c-.14-.13-.28-.26-.42-.4,.14,.14,.28,.26,.42,.4Z"/>
  <path class="cls-2" d="M339.86,422.52c-.36-.62-.85-.45-1.3-.2,.44-.23,.91-.35,1.24,.23,.45,.79-.32,1.14-.84,1.51-4.57,3.16-9.43,5.6-14.71,6.97,5.3-1.37,10.19-3.82,14.77-7,.52-.37,1.32-.7,.84-1.51Z"/>
  <path class="cls-2" d="M323.66,474.71v-.03s0,.03,0,.03h.07c-2.04-5.28-5.88-7.69-11.5-7.4-.57,.05-1.14-.06-1.65-.33-1.44-.76-1.99-2.54-1.23-3.98,3.68-7.98,6.27-16.41,7.71-25.07,.24-1.42,.35-2.87,.31-4.31-.02-.53,.05-.89,.26-1.14-.24,.25-.32,.61-.32,1.17,.04,1.44-.06,2.89-.31,4.31-1.44,8.66-4.03,17.1-7.71,25.07-.27,.51-.38,1.08-.33,1.65,.15,1.62,1.58,2.81,3.21,2.66,5.64-.29,9.48,2.11,11.5,7.38h0s0-.01,0-.01Z"/>
  <path class="cls-2" d="M389.99,130.62s0,0,.01,0c2.77-21.67-1.05-42.26-9.45-62.29,.34-.1,.67-.14,.99-.15-.32,0-.66,.05-1.01,.15,8.4,20.03,12.2,40.62,9.45,62.3Z"/>
  <path class="cls-2" d="M417.47,106.55c.11-.16,.23-.31,.33-.48,.72-1.07,1.35-2.21,1.88-3.38-.53,1.17-1.15,2.29-1.88,3.36-.11,.17-.22,.33-.33,.5Z"/>
  <path class="cls-2" d="M401.05,123.6c-.06,.04-.12,.09-.18,.13,.06-.04,.12-.09,.18-.13Z"/>
  <path class="cls-2" d="M398.3,125.6c-.63,.44-1.27,.88-1.91,1.32,.64-.43,1.28-.87,1.91-1.32Z"/>
  <path class="cls-2" d="M415.53,109.35c-.05,.07-.11,.14-.16,.21,.05-.07,.11-.14,.16-.21Z"/>
  <path class="cls-2" d="M390.74,130.49c-.24,.07-.49,.11-.74,.13,0,0,0,0,0,0h-.01v.02c.26-.02,.51-.06,.75-.13,1.18-.72,2.37-1.44,3.52-2.16,.5-.32,.98-.66,1.48-.99-.49,.33-.98,.65-1.48,.97-1.15,.72-2.34,1.44-3.52,2.16Z"/>
  <path class="cls-2" d="M378.61,64.02c.85-1.06,1.48-2.28,1.85-3.59,1.71-4.78,2.99-9.7,3.82-14.71,.92-5.7,1.11-11.37,.27-16.97,.83,5.59,.63,11.25-.27,16.93-.83,5.01-2.11,9.93-3.82,14.71-.38,1.31-1.01,2.53-1.85,3.59-10-19.35-24.77-33.73-44.18-43.79v.04c19.41,10.09,34.18,24.45,44.18,43.79Z"/>
  <path class="cls-2" d="M380.42,16.22c-3.15-5.05-7.95-7.61-14.05-7.29,6.11-.32,10.89,2.25,14.05,7.29Z"/>
  <path class="cls-2" d="M364.4,193.28c-3.3,10.89-5.61,22.06-6.91,33.36-.66,5.16-1.03,10.35-1.09,15.55,.07-5.18,.43-10.35,1.09-15.49,1.3-11.31,3.61-22.47,6.91-33.36,.78-2.53,.73-2.52,2.97-.91,4.64,3.34,9.41,6.5,13.72,10.32,2.8,2.41,5.11,5.34,6.81,8.63,1.26,2.54,1.62,4.99,1.13,7.39,.52-2.42,.16-4.89-1.13-7.45-1.7-3.28-4.01-6.21-6.81-8.63-4.29-3.85-9.08-6.97-13.72-10.32-2.25-1.61-2.19-1.62-2.97,.91Z"/>
  <path class="cls-2" d="M389.14,135.58c2.85,2.43,5.54,5.06,8.03,7.86-2.49-2.8-5.18-5.43-8.03-7.87,0,0,0,0,0,0Z"/>
  <path class="cls-2" d="M407.37,159.84c-.35-1.79-1.05-3.59-2.1-5.37-2.31-3.94-5.02-7.64-8.09-11.03,3.08,3.41,5.8,7.12,8.11,11.09,1.04,1.76,1.73,3.54,2.09,5.3Z"/>
  <path class="cls-2" d="M366.9,186.37h.01s0,0,0,0c0,0-.01,0-.02,0Z"/>
  <path class="cls-2" d="M241.4,309.14c-.02-2.49,.67-4.96,1.62-7.41,0-.01,0-.02,0-.03-.95,2.47-1.64,4.95-1.62,7.45Z"/>
  <path class="cls-2" d="M254.22,309.62c-.11,1.12-.33,2.2-.77,3.17,.45-.98,.68-2.07,.79-3.18,.22-2.18-.31-4.25-1.28-6.59-.01,0-.02-.01-.03-.02,.98,2.35,1.52,4.38,1.29,6.62Z"/>
  <path class="cls-2" d="M261.44,290.47c-6.13-2.81-12.51-4.19-19.22-3.08-2.08,.34-4.05,1.18-5.83,2.38,1.77-1.19,3.74-2.02,5.81-2.36,6.71-1.11,13.09,.27,19.22,3.08,1.28,.58,1.7,1.37,1.37,2.73-1.22,5.3-2.06,10.67-2.52,16.09-.05,.64-.19,.94-.41,1.03,.23-.08,.38-.38,.44-1.04,.46-5.42,1.3-10.79,2.52-16.09,.32-1.36-.09-2.14-1.37-2.73Z"/>
  <path class="cls-2" d="M252.76,313.94c-.04,.06-.08,.12-.12,.17,.04-.05,.08-.11,.12-.17Z"/>
  <path class="cls-2" d="M233.34,313.14s.02,.01,.03,.01c-.69-4.73-1.97-9.09,.63-13.21h-.02c-2.6,4.13-1.36,8.47-.64,13.19Z"/>
  <path class="cls-2" d="M252.21,314.57s-.09,.1-.14,.14c.05-.05,.09-.1,.14-.14Z"/>
  <path class="cls-2" d="M242.94,316.36c.07-.04,.14-.1,.19-.17,0,0,0-.02,.02-.03,0,0,0,.01,0,.02-.06,.08-.13,.14-.2,.19Z"/>
  <path class="cls-2" d="M251.41,315.24c.09-.06,.16-.13,.25-.2-.09,.07-.17,.14-.26,.2,0,0,0,0,.01,0Z"/>
  <path class="cls-2" d="M234.84,310.28c-1.07-3.33-1.36-6.87-.84-10.33-.52,3.47-.24,7.01,.83,10.34,.98,3.24,2.96,5.23,6.28,5.89,.26,.06,.55,.15,.83,.22-.27-.08-.55-.18-.82-.23-3.32-.66-5.31-2.65-6.28-5.89Z"/>
  <path class="cls-2" d="M253.43,312.83c-.1,.22-.21,.44-.34,.64,.13-.21,.24-.42,.34-.64Z"/>
  <path class="cls-2" d="M362.78,287.39s0,0,0-.01c0,0-.02,.01-.03,.02h.03Z"/>
  <path class="cls-2" d="M356.54,251.98c-.1-1.06,0-1.69,.55-1.92-.57,.23-.69,.85-.58,1.93,.62,6.47,1.39,12.98,2.49,19.41,.86,5.41,2.12,10.75,3.77,15.97,.01,0,.02-.02,.03-.02-1.65-5.22-2.91-10.55-3.77-15.96-1.1-6.43-1.88-12.94-2.49-19.41Z"/>
  <path class="cls-2" d="M384.39,306.13c-.15,.28-.32,.56-.48,.85,.16-.28,.32-.56,.48-.85Z"/>
  <path class="cls-2" d="M379.9,313.85c-.18,.29-.37,.57-.55,.86,.18-.29,.37-.57,.55-.86Z"/>
  <path class="cls-2" d="M382.2,310.02c-.14,.24-.29,.48-.43,.72,.14-.24,.29-.48,.43-.72Z"/>
  <path class="cls-2" d="M369.15,288.67c1.54-.23,3.08-.4,4.62-.47-1.54,.07-3.08,.24-4.62,.47Z"/>
  <path class="cls-2" d="M359.23,478.14c-.09,.25-.19,.5-.27,.75,.08-.26,.18-.5,.27-.75Z"/>
  <path class="cls-2" d="M358.69,479.86c-.02,.1-.06,.19-.08,.29,.02-.1,.05-.19,.08-.29Z"/>
  <path class="cls-2" d="M350.59,489.97h0c1.26,.01,2.51-.01,3.77-.02-1.26,0-2.51,.02-3.77,.02Z"/>
  <path class="cls-2" d="M358.35,481.41s0,.01,0,.02c0,0,0-.01,0-.02Z"/>
  <path class="cls-2" d="M356.91,489.97c-.31,0-.62,0-.93,0,.31,0,.62,0,.93,.02,1.12,.04,1.46-.25,1.41-1.18,.04,.92-.3,1.21-1.41,1.16Z"/>
  <path class="cls-2" d="M365.96,469.17c-3.12,2.45-5.3,5.3-6.57,8.51,1.27-3.21,3.45-6.05,6.57-8.5,.52-.41,.81-.72,.85-1.04-.04,.32-.34,.63-.85,1.03Z"/>
  <path class="cls-2" d="M343.84,489.95c-.83,.01-1.19-.25-1.19-.95,0,.7,.35,.96,1.19,.96,2.25-.04,4.51,0,6.76,0h0c-2.25-.01-4.51-.06-6.76-.01Z"/>
  <path class="cls-2" d="M292.01,489.95s0,0,0,0h-.03s.01,0,.02,0c-2.1,0-4.21-.06-6.3,0-1.17,.04-1.6-.34-1.44-1.51,1.04-7.17,2.97-13.93,7.51-19.85,.48-.62,1.03-1.15,1.65-1.6-.63,.45-1.19,.99-1.68,1.62-4.54,5.92-6.51,12.66-7.51,19.85-.14,1.17,.29,1.51,1.44,1.51,2.1-.05,4.21,0,6.31,0h-.03c2.11,0,4.21-.08,6.3,0,.5,.02,.87-.02,1.13-.15-.26,.12-.62,.15-1.1,.13-2.09-.06-4.19,0-6.28,0Z"/>
  <path class="cls-2" d="M332.82,489.95h0c1.03,0,2.07-.01,3.1-.02-1.03,0-2.07,.02-3.1,.02Z"/>
  <path class="cls-2" d="M327.17,489.98c-1.39,.05-2.01-.27-2.01-1.92,.15-6.81,1.78-13,6.28-18.31,1.12-1.32,2.78-2.28,4.61-2.81-1.84,.53-3.52,1.49-4.64,2.82-4.5,5.31-6.13,11.52-6.28,18.31-.04,1.65,.62,1.97,2.01,1.92,1.88-.04,3.77,0,5.65,0h0c-1.87,0-3.75-.06-5.62,0Z"/>
  <path class="cls-2" d="M338.69,489.95c-.18,0-.36,0-.54,0,.17,0,.34,0,.52,.01,.31,.01,.59,0,.82-.04-.23,.04-.49,.04-.79,.03Z"/>
  <path class="cls-2" d="M280.21,489.97c-1.96-.08-3.92,0-5.88,0v-.06h-6.1c-.78,0-1.44-.02-1.44-1.1,.05-6.92,1.26-13.44,6.08-18.62-4.84,5.19-6.06,11.72-6.11,18.65,0,1.1,.66,1.1,1.44,1.1h6.1l-.03,.06c1.96,0,3.92-.1,5.88,0,.53,.03,.93-.02,1.23-.17-.29,.12-.67,.16-1.17,.14Z"/>
  <path class="cls-2" d="M273.87,469.19s-.07,.07-.11,.11c.04-.04,.07-.07,.11-.11,0,0,0,0,0,0Z"/>
  <path class="cls-2" d="M323.73,474.74h-.06s0-.01,0-.02l-.38,1.16s.03,.04,.05,.07l.39-1.21Z"/>
  <path class="cls-2" d="M302.96,488.87c-.29-5.03,.29-9.76,3.3-14.08,3.45-4.92,8.02-5.34,11.98-3.37-3.97-1.99-8.57-1.6-12.04,3.35-3.01,4.3-3.62,9.04-3.3,14.08,.03,.57,.23,.85,.55,.99-.28-.15-.46-.43-.49-.97Z"/>
  <polygon class="cls-2" points="323.66 474.71 323.67 474.71 323.68 474.69 323.66 474.71"/>
  <path class="cls-2" d="M323.73,474.74v-.03s-.06,0-.06,0h0s0,.02,0,.03h.06Z"/>
  <path class="cls-2" d="M400.5,322.11c-.04-4.34-2.01-7.27-7.05-6.98v.04c5.02-.28,7.01,2.62,7.05,6.95Z"/>
  <path class="cls-2" d="M379.82,320.3c.04-.26,.27-.49,.69-.74,3.89-2.28,7.91-4.26,12.94-4.44v-.04c-5.03,.17-9.05,2.12-12.94,4.44-.44,.26-.66,.5-.69,.78Z"/>
  <path class="cls-2" d="M384.29,325.5c-.26-.24-.52-.49-.78-.74,.26,.25,.52,.5,.78,.74Z"/>
  <path class="cls-2" d="M381.77,322.96c-.23-.25-.45-.5-.68-.76,.22,.26,.45,.51,.68,.76Z"/>
  <path class="cls-2" d="M398.86,336.16s.03,.01,.05,.02c3.84-3.32,7.33-6.43,10.94-9.39,2.47-2.02,4.29-1.69,5.79,1.14,1.47,2.97,2.68,6.08,3.59,9.27,.07,.25,.16,.52,.13,.74,.07-.23-.03-.52-.12-.81-.92-3.19-2.12-6.29-3.59-9.27-1.48-2.83-3.32-3.16-5.79-1.14-3.64,2.96-7.14,6.1-11.01,9.43h0Z"/>
  <path class="cls-2" d="M432.07,325.47c2.03,1.42,3.82,3.13,5.75,4.66,.43,.34,.56,.6,.52,.83,.09-.25-.03-.53-.51-.9-1.94-1.53-3.74-3.22-5.75-4.66-2.19-1.55-3.64-1.28-5.2,.88-2.09,2.8-3.41,6.1-3.83,9.57,.43-3.45,1.74-6.72,3.82-9.5,1.56-2.14,3.04-2.42,5.2-.88Z"/>
  <path class="cls-2" d="M271.9,372.37s.09,.09,.13,.14c-.04-.06-.09-.09-.13-.14Z"/>
  <path class="cls-2" d="M271.52,372.23c.13,0,.24,.03,.33,.09-.1-.08-.22-.14-.38-.14-.51,0-.32,.61-.44,.96h.06c.09-.35-.07-.91,.43-.91Z"/>
  <rect class="cls-2" x="271.03" y="373.14" width=".06" height="0"/>
  <path class="cls-2" d="M273.02,402.61l-.05-.06c.02,.07,.06,.13,.11,.18-.03-.03-.05-.07-.06-.11Z"/>
  <path class="cls-2" d="M273.01,402.45l-.05-.06s0,.04,0,.06c0,.03,.01,.06,.02,.09l.05,.06s-.02-.1-.01-.16Z"/>
  <path class="cls-2" d="M302.12,94.44l-.03,.04c.09-2.33-.41-4.64-1.44-6.73-2.03-3.73-6.48-4.14-8.82-.67-.09,.13-.17,.27-.25,.4-.1,.15-.2,.31-.29,.46-.09,.15-.17,.3-.25,.45-.08,.14-.16,.28-.23,.42-.15,.29-.29,.58-.42,.87,0,0,0,0,0,0-1.74,3.88-1.89,8.09-.87,12.37,.5,2.28,2.37,4,4.68,4.31,1.88,.31,3.36-.33,4.55-1.51,.14-.14,.27-.29,.4-.44,.06-.06,.12-.12,.17-.19,.1-.13,.2-.27,.3-.4,.08-.11,.16-.21,.24-.32,1.78-2.62,2.36-5.54,2.26-9.08Z"/>
  <path class="cls-2" d="M291.83,87.1c-.09,.13-.16,.26-.24,.39,.08-.13,.16-.27,.25-.4,0,0,0,0,0,.01Z"/>
  <path class="cls-2" d="M291.05,88.4c.08-.15,.16-.3,.25-.45-.09,.15-.17,.3-.25,.45Z"/>
  <path class="cls-2" d="M294.21,106.37c-2.31-.31-4.18-2.03-4.68-4.31-1.03-4.28-.87-8.49,.87-12.37-1.75,3.89-1.93,8.12-.89,12.41,.5,2.28,2.37,4,4.68,4.31,1.9,.29,3.38-.36,4.57-1.55-1.19,1.18-2.66,1.81-4.55,1.51Z"/>
  <path class="cls-2" d="M299.84,103.54s0-.02,.02-.03c-.08,.11-.16,.21-.24,.32,.07-.1,.15-.19,.22-.29Z"/>
  <path class="cls-2" d="M299.32,104.24c-.05,.07-.11,.12-.17,.19,.06-.06,.12-.12,.17-.19Z"/>
  <path class="cls-2" d="M290.39,89.69c.13-.29,.27-.58,.42-.87-.15,.29-.29,.58-.42,.87Z"/>
  <path class="cls-2" d="M308.52,78.7c-.23-1.29-.79-2.5-1.61-3.52-2.56-3.53-6.62-5.66-10.98-5.75v.04c-3.47,.04-6.17,.45-8.67,1.78-.44,.24-.84,.55-1.01,.97-.09,.25-.09,.55,.04,.89,.37,.96,1.12,1.02,1.98,.77,.35-.1,.72-.14,1.06-.24,6.83-2.01,12.45-.43,16.6,5.56,.11,.19,.25,.36,.4,.51,.47,.41,.93,1.14,1.62,.72,.25-.2,.43-.45,.53-.74,.1-.31,.12-.64,.03-.97Z"/>
  <path class="cls-2" d="M306.33,79.69c-.15-.15-.29-.33-.4-.51-4.15-5.99-9.77-7.57-16.6-5.56-.35,.11-.71,.14-1.06,.24-.86,.25-1.62,.19-1.98-.77-.13-.34-.13-.64-.04-.89-.11,.27-.13,.58,.01,.95,.36,.92,1.12,1.02,1.98,.77,.35-.1,.72-.14,1.06-.24,6.83-2.01,12.45-.43,16.6,5.56,.11,.19,.25,.36,.4,.51,.47,.4,.9,1.14,1.62,.72,.27-.21,.46-.49,.56-.8-.11,.28-.28,.54-.53,.74-.69,.42-1.15-.31-1.62-.72Z"/>
  <path class="cls-2" d="M203.82,161.5c-1.38-2.77-4.8-4.31-7.22-3.28-.15,.07-.3,.14-.44,.23-2.12,1.27-3.08,4.71-2,7.9,1.68-3.72,2.74-4.71,4.73-4.19,.13,.03,.26,.07,.4,.12,2.26,.75,2.72,2.66,1.88,6.76,1.08-.67,1.91-1.52,2.45-2.47,.9-1.59,1.02-3.44,.2-5.06Z"/>
  <path class="cls-2" d="M199.28,162.27c2.15,.73,2.72,2.66,1.88,6.76,.83-4.1,.37-6.01-1.88-6.76Z"/>
  <path class="cls-2" d="M203.82,161.5c.81,1.63,.7,3.48-.2,5.06,.91-1.59,1.02-3.43,.2-5.06Z"/>
  <path class="cls-2" d="M194.15,166.35c1.68-3.71,2.83-4.68,4.73-4.19-1.99-.52-3.05,.47-4.73,4.19Z"/>
  <path class="cls-2" d="M196.15,158.45c-2.2,1.31-3.1,4.7-2,7.9-1.08-3.19-.12-6.62,2-7.9Z"/>
  <path class="cls-2" d="M203.82,161.5c-1.38-2.77-4.7-4.37-7.22-3.28,2.42-1.04,5.84,.51,7.22,3.28Z"/>
</svg>